<?xml version="1.0" standalone="no"?>
<!DOCTYPE svg PUBLIC "-//W3C//DTD SVG 1.1//EN" "http://www.w3.org/Graphics/SVG/1.1/DTD/svg11.dtd" >
<svg xmlns="http://www.w3.org/2000/svg">
<metadata></metadata>
<defs>
<font id="WalbaumFSRegular" horiz-adv-x="1091" >
<font-face units-per-em="2048" ascent="1597" descent="-451" />
<missing-glyph horiz-adv-x="512" />
<glyph unicode="&#xfb01;" horiz-adv-x="1193" d="M43 0v41h164v844h-164v57h164v131q0 90 6 119q49 192 410 192q170 0 267 -49t97 -135q0 -40 -34.5 -67t-86.5 -27q-112 0 -112 115q-1 61 -41.5 88.5t-128.5 27.5q-115 0 -158 -49q-35 -44 -35 -162v-184h533q20 0 69 6v-907h156v-41h-516v41h172v844h-414v-844h166v-41 h-514z" />
<glyph unicode="&#xfb02;" horiz-adv-x="1189" d="M43 0v41h164v844h-164v57h164v131q0 90 6 119q47 190 389 190q51 0 160 -14q44 -6 100 -6q74 0 133 10v-1331h150v-41h-518v41h178v1143q-7 75 -63.5 114t-155.5 39q-117 0 -160 -49q-35 -44 -35 -162v-184h266v-57h-266v-844h166v-41h-514z" />
<glyph horiz-adv-x="0" />
<glyph horiz-adv-x="2048" />
<glyph unicode=" "  horiz-adv-x="512" />
<glyph unicode="&#x09;" horiz-adv-x="512" />
<glyph unicode="&#xa0;" horiz-adv-x="512" />
<glyph unicode="!" horiz-adv-x="587" d="M164 111q0 54 38.5 91.5t94.5 37.5q51 0 89 -38.5t38 -90.5q0 -54 -38 -92.5t-91 -38.5q-55 0 -93 38.5t-38 92.5zM176 1212q0 83 33 128.5t92 45.5q55 0 88 -41.5t33 -109.5q0 -57 -37 -305q-29 -208 -68 -559h-55l-16 207q-7 88 -41 346q-29 213 -29 288z" />
<glyph unicode="&#x22;" horiz-adv-x="880" d="M164 1264q0 58 30 95.5t76 37.5t76.5 -37.5t30.5 -95.5q0 -32 -6 -90l-27 -226h-147l-27 226q-6 56 -6 90zM506 1264q0 58 30 95.5t76 37.5t75.5 -37.5t29.5 -95.5q0 -38 -6 -90l-25 -226h-147l-27 226q-6 52 -6 90z" />
<glyph unicode="#" d="M70 457l16 96h201l45 258h-201l16 96h201l80 459h100l-79 -459h272l80 459h100l-80 -459h201l-18 -96h-199l-45 -258h198l-16 -96h-199l-81 -457h-101l82 457h-272l-82 -457h-101l82 457h-200zM387 553h272l46 258h-273z" />
<glyph unicode="$" d="M117 283q0 55 29 90t75 35q40 0 67 -29.5t27 -73.5q0 -7 -3 -46.5t-3 -53.5q0 -70 47.5 -106.5t163.5 -53.5v563q-154 70 -235 133q-60 46 -95.5 118t-35.5 147q0 78 36.5 149.5t102.5 120.5q47 35 96 52t131 26v196h66v-196q146 -4 242 -65.5t96 -149.5q0 -41 -27 -69 t-68 -28q-28 0 -51 14.5t-33 39.5q-9 20 -11 32.5t-5 69.5q-3 49 -37.5 74.5t-105.5 30.5v-467q101 -45 155 -75.5t107 -72.5q127 -105 127 -278q0 -89 -36 -173t-99 -141q-51 -44 -106 -66.5t-148 -35.5v-213h-66v213q-106 10 -162 24.5t-102 42.5q-66 40 -102.5 98.5 t-36.5 123.5zM307 1110q0 -74 47 -127t166 -113v433q-70 -7 -109 -26.5t-69 -59.5q-35 -47 -35 -107zM586 47q63 10 98 23.5t66 38.5q49 38 75.5 91t26.5 111q0 56 -23 95.5t-78.5 79t-164.5 92.5v-531z" />
<glyph unicode="%" horiz-adv-x="1636" d="M57 915q0 192 85 314.5t218 122.5t214 -123t81 -324q0 -192 -82.5 -312t-214.5 -120q-134 0 -217.5 122t-83.5 320zM223 905q0 -213 29.5 -298t103.5 -85q75 0 103 86t28 312q0 209 -30.5 297t-102.5 88t-101.5 -89.5t-29.5 -310.5zM440 0l662 1329l92 2l-659 -1331h-95z M981 428q0 192 85 314t218 122t214 -122.5t81 -323.5q0 -192 -82.5 -312t-214.5 -120q-134 0 -217.5 122t-83.5 320zM1147 418q0 -213 29.5 -298t103.5 -85q75 0 103 85.5t28 311.5q0 209 -30.5 297t-102.5 88t-101.5 -89t-29.5 -310z" />
<glyph unicode="&#x26;" horiz-adv-x="1394" d="M82 367q0 126 72.5 226.5t242.5 213.5q-90 167 -90 278q0 122 90.5 206.5t220.5 84.5q91 0 143 -42.5t52 -116.5t-54.5 -149t-187.5 -185q9 -13 20.5 -32t14.5 -22l121 -206q88 -150 164 -265q64 134 85 202.5t21 139.5q0 97 -52.5 151t-147.5 54h-39v45h563v-45h-25 q-98 0 -148 -46t-81 -165q-65 -239 -145 -383q75 -100 121 -135t102 -35q71 0 116.5 60t45.5 155q0 77 -41 199l43 14q28 -91 37.5 -142t9.5 -108q0 -139 -88 -239t-211 -100q-65 0 -117.5 32.5t-122.5 116.5q-77 -80 -155.5 -114.5t-182.5 -34.5q-170 0 -283.5 110.5 t-113.5 276.5zM244 514q0 -69 34 -153.5t91 -161.5q109 -144 217 -144q113 0 205 115q-53 68 -167 250.5t-204 343.5q-101 -72 -138.5 -125t-37.5 -125zM449 1198q0 -45 15.5 -91t65.5 -144l19 -37q83 73 119.5 137.5t36.5 136.5q0 60 -30 92.5t-85 32.5q-58 0 -99.5 -37 t-41.5 -90z" />
<glyph unicode="'" horiz-adv-x="540" d="M164 1264q0 58 30 95.5t76 37.5t76.5 -37.5t30.5 -95.5q0 -32 -6 -90l-27 -226h-147l-27 226q-6 56 -6 90z" />
<glyph unicode="(" horiz-adv-x="851" d="M150 469q0 346 184 594q67 93 148 160.5t235 162.5l26 -43q-97 -62 -157 -118t-107 -129q-143 -214 -143 -658q0 -337 93 -527t314 -304l-26 -45q-152 84 -235.5 151.5t-153.5 163.5q-178 246 -178 592z" />
<glyph unicode=")" horiz-adv-x="851" d="M109 -395q97 61 157 117.5t107 130.5q143 215 143 657q0 337 -93 527t-314 304l26 45q152 -84 235.5 -151.5t153.5 -163.5q178 -246 178 -592t-184 -594q-69 -93 -150 -161.5t-233 -161.5z" />
<glyph unicode="*" horiz-adv-x="811" d="M82 1122q0 34 20.5 57t49.5 23q22 0 47 -14l190 -117l-59 211q-4 8 -4 27q0 36 21.5 56.5t58.5 20.5t58 -21t21 -58q0 -9 -4 -25l-59 -211l188 117q22 14 49 14q29 0 49.5 -23t20.5 -57q0 -39 -22.5 -58t-71.5 -20l-205 -8l164 -129q31 -25 38 -35t7 -30q0 -34 -26 -60 t-60 -26q-24 0 -43.5 14.5t-28.5 38.5l-75 207l-78 -207q-9 -25 -28 -39t-42 -14q-34 0 -60 26t-26 60q0 20 7.5 30.5t37.5 34.5l162 129l-203 8q-49 1 -71.5 20t-22.5 58z" />
<glyph unicode="+" d="M111 635v96h389v389h96v-389h387v-96h-387v-389h-96v389h-389z" />
<glyph unicode="," horiz-adv-x="534" d="M117 100q0 54 41 91.5t100 37.5q69 0 114.5 -59.5t45.5 -151.5q0 -115 -69.5 -216t-203.5 -179l-24 39q98 72 154.5 154.5t56.5 154.5q0 5 -4 45q-43 -36 -90 -36q-53 0 -87 34t-34 86z" />
<glyph unicode="-" horiz-adv-x="471" d="M0 465v102h471v-102h-471z" />
<glyph unicode="." horiz-adv-x="548" d="M145 111q0 54 39 91.5t95 37.5q51 0 89 -38.5t38 -90.5q0 -54 -38.5 -92.5t-91.5 -38.5q-55 0 -93 38.5t-38 92.5z" />
<glyph unicode="/" horiz-adv-x="1003" d="M-27 -418l756 1784h117l-756 -1784h-117z" />
<glyph unicode="0" d="M82 662q0 203 59 360t166 243.5t246 86.5q155 0 278 -123q94 -95 137.5 -227t43.5 -320q0 -205 -58.5 -363.5t-163.5 -245.5t-241 -87q-209 0 -338 187t-129 489zM315 635q0 -326 54 -469q25 -61 71 -95t105 -34q61 0 106.5 34.5t67.5 96.5q59 169 59 530q0 325 -47 449 q-57 151 -182 151q-139 0 -191 -184q-43 -153 -43 -479z" />
<glyph unicode="1" d="M215 950q156 109 244.5 200.5t146.5 203.5h94v-1313h209v-41h-639v41h222v1073q-55 -57 -88.5 -85t-155.5 -120z" />
<glyph unicode="2" d="M49 35q250 230 345 322.5t161 170.5q99 118 142.5 219t43.5 214q0 138 -71 220.5t-191 82.5q-125 0 -212 -96t-87 -234q0 -207 197 -328l-31 -49q-117 76 -171 167.5t-54 213.5q0 179 127.5 296.5t320.5 117.5q180 0 290 -104.5t110 -274.5q0 -129 -66 -229.5 t-244 -243.5q-106 -84 -170 -140l-151 -135q-2 -3 -49 -43h252q66 0 102 0.5t77.5 4.5t61 7.5t44.5 16.5t36 24t29.5 36.5t29.5 48.5t31 65l49 -23l-145 -362h-801z" />
<glyph unicode="3" d="M123 281l59 22q45 -113 99 -164q41 -38 99.5 -61t115.5 -23q126 0 184.5 97.5t58.5 306.5q0 190 -49 276t-158 86q-63 0 -117.5 -34.5t-156.5 -137.5l-43 41l477 459h-434l-76 -184l-49 20l137 352h658l10 -32l-457 -439q81 23 137 23q158 0 254.5 -117.5t96.5 -312.5 q0 -217 -120 -345t-323 -128q-156 0 -266 84q-51 38 -80 83.5t-57 127.5z" />
<glyph unicode="4" d="M63 430v68l633 870h76v-870h166v168h66v-406h-66v170h-166v-430h-205v430h-504zM141 498h426v583z" />
<glyph unicode="5" d="M104 360l62 17q26 -91 49.5 -139.5t63.5 -92.5t97.5 -69t119.5 -25q133 0 197.5 104.5t64.5 319.5q0 194 -53 277q-31 49 -84 77.5t-113 28.5q-53 0 -106.5 -25t-92.5 -67q-31 -35 -49 -73.5t-35 -106.5l-59 12l164 739h313q129 0 180 25t74 100l49 -18 q-37 -119 -67 -172.5t-80 -85.5t-97.5 -41.5t-164.5 -9.5h-189l-74 -334q66 69 137.5 101t163.5 32q182 0 296 -127.5t114 -329.5q0 -218 -127 -354.5t-330 -136.5q-164 0 -280 104q-56 52 -87 109.5t-57 160.5z" />
<glyph unicode="6" d="M129 612q0 437 211 627q122 113 301 113q138 0 226.5 -71t88.5 -181q0 -43 -24 -69.5t-62 -26.5q-102 0 -102 180q-1 63 -29.5 89.5t-93.5 26.5q-109 0 -182 -91.5t-101 -260.5q-7 -53 -14 -194q104 157 289 157q160 0 257 -121.5t97 -320.5q0 -216 -117.5 -349.5 t-306.5 -133.5q-166 0 -274 102q-164 157 -164 524zM350 461q0 -214 54.5 -317t168.5 -103q104 0 152.5 90t48.5 285q0 198 -33 289q-23 62 -69.5 96.5t-106.5 34.5q-52 0 -98.5 -29.5t-71.5 -79.5q-45 -83 -45 -266z" />
<glyph unicode="7" d="M96 940l156 397h803q-257 -371 -360 -650t-134 -687h-242q68 298 188.5 558t340.5 579h-615l-86 -219z" />
<glyph unicode="8" d="M92 358q0 248 275 353q-106 46 -155.5 114.5t-49.5 169.5q0 152 118 254.5t293 102.5q161 0 268 -84.5t107 -212.5q0 -98 -59.5 -171t-169.5 -108q118 -55 176 -108q49 -45 76.5 -117t27.5 -152q0 -178 -128 -295.5t-322 -117.5q-201 0 -329 104t-128 268zM242 369 q0 -146 84.5 -235t222.5 -89q127 0 209 73.5t82 188.5q0 147 -144 242q-58 38 -272 133l-41 -23q-67 -36 -104 -114t-37 -176zM322 1087q0 -90 70 -148t278 -140l20 14q61 43 89 98.5t28 135.5q0 118 -63 183.5t-177 65.5q-106 0 -175.5 -59t-69.5 -150z" />
<glyph unicode="9" d="M115 866q0 217 117 351.5t305 134.5q214 0 328 -162.5t114 -466.5q0 -226 -60.5 -391t-177.5 -256q-117 -90 -274 -90q-134 0 -225.5 70t-91.5 173q0 47 24 77t62 30q52 0 76 -42.5t26 -133.5q2 -63 31 -92t90 -29q73 0 138 49t97 129q51 121 62 305l4 70 q-29 -46 -51 -69t-56 -44q-88 -51 -188 -51q-158 0 -254 120t-96 318zM332 915q0 -218 49.5 -314.5t159.5 -96.5q54 0 100 27.5t72 74.5q25 48 35 101.5t10 142.5q0 258 -66 364q-58 86 -157 86q-107 0 -155 -90.5t-48 -294.5z" />
<glyph unicode=":" horiz-adv-x="548" d="M145 111q0 54 39 91.5t95 37.5q51 0 89 -38.5t38 -90.5q0 -54 -38.5 -92.5t-91.5 -38.5q-55 0 -93 38.5t-38 92.5zM145 745q0 54 39 91.5t95 37.5q51 0 89 -38.5t38 -90.5q0 -54 -38.5 -92.5t-91.5 -38.5q-55 0 -93 38.5t-38 92.5z" />
<glyph unicode=";" horiz-adv-x="534" d="M117 100q0 54 41 91.5t100 37.5q69 0 114.5 -59.5t45.5 -151.5q0 -115 -69.5 -216t-203.5 -179l-24 39q98 72 154.5 154.5t56.5 154.5q0 5 -4 45q-43 -36 -90 -36q-53 0 -87 34t-34 86zM123 745q0 54 38.5 91.5t94.5 37.5q51 0 89 -38.5t38 -90.5q0 -54 -38 -92.5 t-91 -38.5q-55 0 -93 38.5t-38 92.5z" />
<glyph unicode="&#x3c;" horiz-adv-x="1024" d="M86 713v14l854 543v-94l-596 -385l596 -402v-252z" />
<glyph unicode="=" d="M111 457v96h872v-96h-872zM111 811v96h872v-96h-872z" />
<glyph unicode="&#x3e;" horiz-adv-x="1024" d="M86 137v96l596 383l-596 402v252l854 -576v-14z" />
<glyph unicode="?" horiz-adv-x="778" d="M47 1137q0 104 89.5 176.5t217.5 72.5q155 0 248.5 -104t93.5 -276q0 -154 -75 -244q-49 -61 -187 -123q-39 -18 -59 -28t-39 -25.5t-26 -26.5t-13 -35t-7 -46.5t-1 -65.5q0 -27 2 -58h-62q-2 29 -2 72q0 108 25 168q10 23 30.5 40t104.5 73q68 44 89.5 105t21.5 210 q0 167 -38 240t-124 73q-52 0 -83.5 -25t-31.5 -65q0 -17 3.5 -27.5t27.5 -62.5q8 -16 8 -47q0 -41 -28.5 -69.5t-71.5 -28.5q-47 0 -80 36.5t-33 90.5zM141 111q0 54 38.5 91.5t94.5 37.5q51 0 89 -38.5t38 -90.5q0 -54 -38 -92.5t-91 -38.5q-55 0 -93 38.5t-38 92.5z" />
<glyph unicode="@" horiz-adv-x="1478" d="M76 498q0 145 55.5 278.5t149.5 230.5t223.5 154.5t271.5 57.5q174 0 318 -76.5t226.5 -210t82.5 -295.5q0 -128 -48 -239t-138 -193q-116 -107 -226 -107q-62 0 -100.5 34t-38.5 89q0 41 18 109q-75 -112 -148.5 -163.5t-158.5 -51.5q-89 0 -142.5 58t-53.5 153 q0 129 75 261.5t192 218t232 85.5q39 0 70 -19.5t45 -52.5q12 -32 12 -96l45 154h131l-110 -385q-11 -37 -22 -76.5t-17.5 -60.5t-13 -44.5t-9.5 -34.5t-6 -23.5t-4 -19.5t-1.5 -13.5t-0.5 -14.5q0 -29 15.5 -45.5t41.5 -16.5q34 0 90 39.5t99 93.5q64 78 98.5 173t34.5 192 q0 109 -46.5 208.5t-125 172t-187 115.5t-227.5 43q-135 0 -258 -54t-211.5 -145.5t-141 -217.5t-52.5 -265q0 -182 85.5 -335t233.5 -242t324 -89q183 0 352.5 109.5t220.5 261.5h49q-69 -180 -243.5 -294t-378.5 -114q-187 0 -344 93.5t-247.5 255t-90.5 354.5zM514 283 q-4 -51 21 -84t67 -33q80 0 165 87t140.5 219.5t55.5 256.5q0 60 -27 92.5t-76 32.5q-118 0 -217 -178q-44 -79 -83.5 -200t-45.5 -193z" />
<glyph unicode="A" horiz-adv-x="1089" d="M-82 0v41h162l457 1339h32l441 -1339h176v-41h-617v41h207l-133 432h-356l-144 -432h205v-41h-430zM303 524h328l-158 500z" />
<glyph unicode="B" horiz-adv-x="1259" d="M68 0v41h176v1284h-176v41h626q181 0 258 -49q54 -34 85.5 -104t31.5 -158q0 -140 -84 -215q-38 -36 -84 -56t-137 -41q108 -13 159 -25t101 -40q154 -85 154 -307q0 -114 -44 -200.5t-124 -129.5q-78 -41 -316 -41h-626zM459 47h188q158 0 227.5 75t69.5 247 q0 131 -34 208t-107 111q-37 16 -75 20.5t-140 4.5h-129v-666zM459 760h133q148 0 200 52t52 198q0 161 -43 231q-26 45 -66 61.5t-123 16.5h-153v-559z" />
<glyph unicode="C" horiz-adv-x="1345" d="M88 672q0 326 182.5 520t489.5 194q107 0 208.5 -23.5t239.5 -80.5v-360h-59q-3 107 -26.5 172t-80.5 125q-111 114 -278 114q-103 0 -190.5 -42t-139.5 -117q-96 -140 -96 -480q0 -372 98 -510q51 -73 129 -112t174 -39q175 0 284 122t126 339h59v-381 q-137 -71 -250 -102t-231 -31q-292 0 -465.5 188.5t-173.5 503.5z" />
<glyph unicode="D" horiz-adv-x="1519" d="M68 0v41h180v1284h-180v41h737q263 0 405 -111q107 -85 164.5 -229.5t57.5 -333.5q0 -213 -70.5 -374.5t-196.5 -241.5q-123 -76 -356 -76h-741zM463 47h291q104 0 168.5 24t117.5 83q71 78 111.5 220.5t40.5 313.5q0 209 -54.5 366.5t-148.5 215.5q-45 29 -95 39 t-146 10h-285v-1272z" />
<glyph unicode="E" horiz-adv-x="1316" d="M68 0v41h180v1284h-180v41h1087l12 -418h-49q-20 192 -123 301q-39 39 -93.5 54.5t-156.5 15.5h-284v-592h98q140 0 192 50.5t52 185.5v53h49v-651h-49l2 77q3 144 -64 193q-28 22 -66 29.5t-116 7.5h-98v-625h276q117 0 186 20t119 66q59 57 91 134t45 198h53l-19 -465 h-1144z" />
<glyph unicode="F" horiz-adv-x="1210" d="M68 0v41h184v1284h-172v41h1077l12 -412h-51q-8 106 -36.5 176t-88.5 125q-73 64 -254 64h-274v-590h108q137 0 187.5 60t50.5 223v8h47v-653h-47q2 29 2 79q0 127 -54.5 180.5t-183.5 53.5h-110v-639h178v-41h-575z" />
<glyph unicode="G" horiz-adv-x="1423" d="M88 680q0 177 58.5 320t168.5 237q85 71 199.5 110t237.5 39q93 0 191 -22.5t259 -79.5v-383h-47q-23 117 -52.5 182t-86.5 127q-116 125 -291 125q-197 0 -293 -159q-52 -87 -74 -207t-22 -316q0 -198 27 -309.5t94 -193.5q102 -121 270 -121q145 0 246 75 q41 31 56 67.5t15 107.5v333h-202v41h567v-41h-156v-495q-277 -137 -518 -137q-150 0 -272.5 52t-204.5 145.5t-126 222t-44 280.5z" />
<glyph unicode="H" horiz-adv-x="1517" d="M68 0v41h174v1284h-174v41h569v-41h-180v-600h602v600h-178v41h567v-41h-176v-1284h176v-41h-567v41h178v639h-602v-639h180v-41h-569z" />
<glyph unicode="I" horiz-adv-x="733" d="M82 0v41h174v1284h-174v41h569v-41h-180v-1284h180v-41h-569z" />
<glyph unicode="J" horiz-adv-x="817" d="M-10 199q0 51 32.5 85.5t79.5 34.5q43 0 71 -28.5t28 -71.5q0 -29 -9.5 -48t-46.5 -60q-18 -22 -18 -35q0 -20 31 -33.5t78 -13.5q107 0 135 75q16 41 16 215v1006h-178v41h563v-41h-172v-1006q0 -97 -10 -143.5t-39 -87.5q-73 -108 -272 -108q-166 0 -236 79 q-23 26 -38 65.5t-15 74.5z" />
<glyph unicode="K" horiz-adv-x="1310" d="M68 0v41h176v1284h-176v41h569v-41h-182v-551h131l332 551h-177v41h412v-41h-168l-250 -405l461 -879h186v-41h-604v41h162l-346 684h-139v-684h182v-41h-569z" />
<glyph unicode="L" horiz-adv-x="1265" d="M68 0v41h174v1284h-174v41h571v-41h-180v-1278h282q117 0 179.5 18.5t113.5 67.5q52 52 83 134.5t54 230.5h50v-498h-1153z" />
<glyph unicode="M" horiz-adv-x="1818" d="M55 0v41h174v1284h-174v41h441l407 -1059l430 1059h418v-41h-176v-1284h176v-41h-606v41h215v1249l-529 -1313h-28l-512 1313v-1249h205v-41h-441z" />
<glyph unicode="N" horiz-adv-x="1443" d="M55 0v41h178v1284h-178v41h445l665 -979v938h-204v41h430v-41h-170v-1335l-31 -10l-901 1306v-1245h211v-41h-445z" />
<glyph unicode="O" horiz-adv-x="1437" d="M88 676q0 324 173 517t462 193q290 0 458.5 -187t168.5 -509q0 -193 -75 -356t-206 -252q-145 -102 -354 -102q-278 0 -452.5 193.5t-174.5 502.5zM338 657q0 -210 27.5 -329t91.5 -189q46 -49 116.5 -77.5t147.5 -28.5q88 0 160 35t118 100q56 79 78.5 193t22.5 325 q0 235 -24 353t-87 190q-43 49 -111.5 76.5t-148.5 27.5t-151.5 -28t-116.5 -78q-66 -72 -94.5 -203t-28.5 -367z" />
<glyph unicode="P" horiz-adv-x="1124" d="M68 0v41h178v1284h-178v41h616q175 0 270 -59q68 -44 105 -125.5t37 -186.5q0 -244 -168 -329q-47 -23 -100.5 -32t-143.5 -9h-225v-584h174v-41h-565zM459 676h123q168 0 229 63.5t61 237.5q0 240 -98 307q-30 22 -67 28.5t-121 6.5h-127v-643z" />
<glyph unicode="Q" horiz-adv-x="1437" d="M88 672q0 322 173.5 518t459.5 196q289 0 459 -184.5t170 -499.5q0 -158 -45.5 -292.5t-126 -229t-196 -147.5t-251.5 -53q-68 0 -166 20q111 -43 150.5 -79.5t56.5 -115.5q19 -83 46 -106t106 -23h55v-45h-193q-113 0 -160.5 40t-54.5 141q-5 73 -12.5 105t-24 51.5 t-55.5 43.5q-115 68 -148.5 93.5t-80.5 80.5q-162 185 -162 486zM338 666q0 -216 26 -333.5t89 -191.5q45 -52 117.5 -82t150.5 -30q90 0 167.5 37.5t119.5 103.5q50 74 71 187.5t21 306.5q0 231 -22.5 353.5t-78.5 196.5q-41 56 -113 86.5t-161 30.5q-174 0 -266 -106 q-66 -75 -93.5 -201t-27.5 -358z" />
<glyph unicode="R" horiz-adv-x="1284" d="M68 0v41h180v1284h-180v41h573q182 0 260 -41q61 -34 97 -110t36 -171q0 -162 -92 -235q-41 -32 -88.5 -50t-144.5 -38q81 -7 136 -16.5t100 -29t71 -45.5t45 -69.5t27.5 -96.5t13.5 -132q6 -98 15 -149.5t32.5 -84.5t57 -41.5t96.5 -9.5v-47h-150q-84 0 -134 19.5 t-81 64.5q-27 39 -37.5 90t-19.5 188q-6 105 -21 165.5t-52 98t-92 50t-151 12.5h-108v-647h184v-41h-573zM457 743h104q138 0 194 64t56 221q0 162 -56.5 226.5t-197.5 64.5h-100v-576z" />
<glyph unicode="S" horiz-adv-x="1067" d="M82 451h57q15 -109 42.5 -172.5t84.5 -120.5q113 -113 275 -113q135 0 222 73.5t87 188.5q0 69 -34 118t-116.5 96t-244.5 110q-215 83 -283 182q-61 85 -61 197q0 166 124.5 271t321.5 105q159 0 342 -77v-301h-53q-7 72 -23.5 115.5t-52.5 88.5q-97 117 -250 117 q-113 0 -188.5 -64t-75.5 -159q0 -89 65 -144t261 -131q224 -88 314.5 -180.5t90.5 -234.5q0 -192 -141 -314t-361 -122q-97 0 -183.5 19.5t-205.5 68.5z" />
<glyph unicode="T" horiz-adv-x="1247" d="M18 932v434h1211v-434h-58q-8 166 -92 285q-38 54 -93.5 78t-143.5 24h-111v-1278h207v-41h-635v41h213v1278h-98q-98 0 -152 -22.5t-98 -82.5t-66.5 -124t-31.5 -158h-52z" />
<glyph unicode="U" horiz-adv-x="1439" d="M47 1325v41h578v-41h-197v-901q0 -130 20 -203t66 -110q87 -72 287 -72q245 0 327 108q34 43 47 102.5t13 174.5v901h-193v41h424v-41h-172v-901q0 -120 -14 -185.5t-49 -115.5q-53 -74 -160 -108.5t-285 -34.5q-188 0 -302.5 35t-168.5 108q-35 49 -44 100t-9 201v901 h-168z" />
<glyph unicode="V" horiz-adv-x="1030" d="M-109 1325v41h582v-41h-201l324 -1014l344 1014h-203v41h404v-41h-137l-467 -1350h-43l-449 1350h-154z" />
<glyph unicode="W" horiz-adv-x="1779" d="M-96 1325v41h581v-41h-200l282 -975l289 975h-190v41h614v-41h-199l248 -975l330 975h-191v41h408v-41h-154l-465 -1348h-43l-329 1250l-379 -1250h-41l-410 1348h-151z" />
<glyph unicode="X" horiz-adv-x="1187" d="M-51 0v41h153l390 608l-365 676h-164v41h623v-41h-205l237 -465l293 465h-176v41h408v-41h-154l-336 -522l420 -762h168v-41h-623v41h197l-289 545l-346 -545h205v-41h-436z" />
<glyph unicode="Y" horiz-adv-x="1024" d="M-92 1325v41h608v-41h-209l307 -563l293 563h-205v41h412v-41h-147l-334 -639v-645h178v-41h-573v41h184v645l-365 639h-149z" />
<glyph unicode="Z" horiz-adv-x="1193" d="M14 0l826 1319h-316q-114 0 -174.5 -24t-103.5 -85q-65 -92 -74 -258h-49v414h993l-821 -1319h297q154 0 240.5 23.5t140.5 79.5q63 66 92.5 143t36.5 201h51v-494h-1139z" />
<glyph unicode="[" horiz-adv-x="745" d="M205 -418v1784h344v-41h-180v-1702h180v-41h-344z" />
<glyph unicode="\" horiz-adv-x="1003" d="M158 1366h116l756 -1784h-117z" />
<glyph unicode="]" horiz-adv-x="745" d="M199 -377h180v1702h-180v41h344v-1784h-344v41z" />
<glyph unicode="^" horiz-adv-x="1024" d="M-55 580l575 854h15l542 -854h-94l-385 596l-401 -596h-252z" />
<glyph unicode="_" horiz-adv-x="1024" d="M0 -182h1024v-111h-1024v111z" />
<glyph unicode="`" horiz-adv-x="1024" d="M252 1343q0 52 74 52h67q41 0 55.5 -13t34.5 -69l97 -271h-48l-243 238q-37 37 -37 63z" />
<glyph unicode="a" horiz-adv-x="1036" d="M80 254q0 164 110 225q41 23 77.5 33t193.5 43q76 16 194 55q-3 125 -8 170.5t-18 73.5q-29 59 -135 59q-92 0 -132 -53q-13 -18 -15 -31.5t-7 -91.5q-3 -78 -94 -78q-51 0 -71.5 17.5t-20.5 58.5q0 103 93.5 161t260.5 58q211 0 287 -98q28 -35 37.5 -80.5t9.5 -142.5 v-361q0 -107 8 -152.5t30 -62t74 -16.5q20 0 43 2v-41q-20 -2 -98 -2h-80q-75 0 -121 37t-55 104q-52 -79 -125.5 -116t-179.5 -37q-126 0 -192 68t-66 198zM289 254q0 -108 32.5 -158.5t102.5 -50.5q55 0 108 37.5t84 99.5q39 77 39 254v127q-68 -23 -114 -35 q-94 -25 -131 -41.5t-66 -46.5q-55 -58 -55 -186z" />
<glyph unicode="b" horiz-adv-x="1081" d="M27 1317v41h55q140 0 278 14v-571q46 72 84 96q81 59 201 59q167 0 260.5 -124.5t93.5 -346.5q0 -230 -100.5 -364.5t-271.5 -134.5q-97 0 -158.5 35t-108.5 118v-139h-196v1317h-137zM350 442q0 -140 14 -205t54 -120q55 -74 149 -74q226 0 226 438q0 416 -211 416 q-54 0 -100 -26t-74 -72q-32 -54 -45 -132t-13 -225z" />
<glyph unicode="c" horiz-adv-x="991" d="M80 463q0 215 131 353t334 138q150 0 256 -79t106 -191q0 -43 -27.5 -68.5t-74.5 -25.5q-58 0 -76 35q-9 15 -11 29.5t-3 86.5q-2 74 -49.5 120t-122.5 46q-248 0 -248 -446q0 -200 73 -311t203 -111q100 0 189 67q47 35 78 82t57 125l43 -12q-29 -83 -57 -129t-74 -86 q-56 -47 -129.5 -73.5t-151.5 -26.5q-195 0 -320.5 135t-125.5 342z" />
<glyph unicode="d" horiz-adv-x="1097" d="M80 461q0 226 105.5 359.5t283.5 133.5q95 0 150.5 -37t99.5 -131v531h-184v41h94q142 0 280 14v-1331h146v-41h-56q-147 0 -280 -14v170q-43 -91 -105.5 -130.5t-162.5 -39.5q-166 0 -268.5 131t-102.5 344zM293 479q0 -126 12 -199.5t41 -127.5q25 -45 68 -71t92 -26 q54 0 98.5 29.5t69.5 83.5q24 50 33.5 108t9.5 154q0 227 -33 318q-56 145 -180 145q-120 0 -168 -111q-43 -97 -43 -303z" />
<glyph unicode="e" horiz-adv-x="1007" d="M80 469q0 213 124 349t318 136q102 0 188.5 -39.5t143.5 -111.5q43 -57 61 -116t21 -152h-641q2 -138 11.5 -215.5t33.5 -133.5q29 -69 93.5 -108t148.5 -39q207 0 307 248l47 -17q-55 -147 -154.5 -215.5t-255.5 -68.5q-206 0 -326 130t-120 353zM295 586h418 q-5 96 -12 140t-27 87q-22 46 -64.5 72t-97.5 26q-51 0 -93 -22t-65 -62q-26 -43 -37 -90t-22 -151z" />
<glyph unicode="f" horiz-adv-x="643" d="M43 0v41h164v844h-164v57h164v131q0 97 6.5 133t30.5 72q68 106 272 106q129 0 203 -48.5t74 -131.5q0 -82 -91 -82q-48 0 -66 21t-18 78q-2 62 -26 89t-78 27q-71 0 -97 -45t-26 -166v-184h191v-57h-191v-844h166v-41h-514z" />
<glyph unicode="g" horiz-adv-x="1007" d="M55 -152q0 75 48.5 118.5t152.5 60.5q-96 33 -137 77q-62 68 -62 152q0 75 42.5 124t142.5 87q-38 47 -53 87t-15 97q0 136 92.5 219.5t243.5 83.5q79 0 135.5 -20.5t108.5 -69.5q53 76 135 76q54 0 86.5 -32.5t32.5 -86.5q0 -33 -18 -53t-48 -20q-37 0 -53 28 q-6 9 -7 16.5t-3 41.5q0 17 -10.5 28.5t-24.5 11.5q-34 0 -60 -51q25 -45 34 -76.5t9 -80.5q0 -138 -88.5 -223t-234.5 -85q-65 0 -110.5 15t-114.5 57q-142 -46 -142 -135q0 -47 49.5 -65.5t178.5 -18.5q12 0 245 4q175 3 261.5 -68.5t86.5 -228.5q0 -159 -116.5 -245.5 t-331.5 -86.5q-207 0 -331 71t-124 191zM186 -160q0 -100 84.5 -152.5t245.5 -52.5q169 0 272 61t103 161q0 43 -21.5 79.5t-56.5 55.5t-84 25t-160 6q-160 0 -220 -9t-97 -37q-66 -51 -66 -137zM358 635q0 -103 25 -160q15 -33 47.5 -52.5t71.5 -19.5q78 0 111.5 65 t33.5 216q0 120 -34 174.5t-109 54.5q-47 0 -77.5 -20.5t-45 -62t-19 -85.5t-4.5 -110z" />
<glyph unicode="h" horiz-adv-x="1200" d="M31 0v41h159v1276h-157v41h67q143 0 281 14v-620q30 55 54 84t57 53q92 67 231 67q159 0 225 -88q28 -37 37.5 -80.5t9.5 -134.5v-612h152v-41h-496v41h154v500q0 141 -7.5 201t-29.5 92q-38 53 -121 53q-73 0 -134 -42t-93 -114q-39 -92 -39 -315v-375h160v-41h-510z " />
<glyph unicode="i" horiz-adv-x="618" d="M43 0v41h172v852h-166v41h76q145 0 278 14v-907h158v-41h-518zM195 1239q0 47 33.5 80t80.5 33q44 0 77.5 -33.5t33.5 -79.5t-33.5 -79.5t-79.5 -33.5t-79 33.5t-33 79.5z" />
<glyph unicode="j" horiz-adv-x="548" d="M-39 -367q106 54 148 99q77 83 77 309v852h-166v41h76q148 0 281 14v-907q0 -110 -18.5 -171t-65.5 -108q-46 -46 -98 -75.5t-172 -79.5q-5 -1 -46 -19zM166 1239q0 47 34 80t81 33q44 0 77 -33.5t33 -79.5t-33 -79.5t-79 -33.5t-79.5 33.5t-33.5 79.5z" />
<glyph unicode="k" horiz-adv-x="1034" d="M31 0v41h157v1276h-155v41h61q145 0 283 14v-866h121l225 387h-193v41h412v-41h-154l-184 -301l410 -551h84v-41h-484v41h162l-297 418h-102v-418h153v-41h-499z" />
<glyph unicode="l" horiz-adv-x="593" d="M31 0v41h178v1276h-166v41h76q142 0 280 14v-1331h150v-41h-518z" />
<glyph unicode="m" horiz-adv-x="1832" d="M43 0v41h168v852h-164v41h88q148 0 281 14l-10 -182q55 94 131 141t194 47q77 0 137.5 -25.5t94.5 -72.5q28 -38 47 -113q29 53 52 83t54 55q92 73 234 73q86 0 147.5 -30.5t89.5 -87.5q20 -41 27.5 -90.5t7.5 -143.5v-561h158v-41h-504v41h151v561q0 154 -24 209 q-15 33 -50 52.5t-79 19.5q-71 0 -131.5 -44.5t-91.5 -119.5q-41 -103 -41 -305v-373h153v-41h-501v41h155v561q0 154 -26 213q-15 34 -49.5 54t-75.5 20q-63 0 -120 -34t-89 -91q-51 -92 -51 -350v-373h149v-41h-512z" />
<glyph unicode="n" horiz-adv-x="1216" d="M43 0v41h172v852h-170v41h96q155 0 279 14v-192q27 50 48.5 76t55.5 51q104 71 236 71q173 0 227 -127q18 -43 21.5 -69.5t3.5 -136.5v-580h151v-41h-497v41h155v580q0 151 -30.5 209.5t-108.5 58.5q-67 0 -126.5 -39.5t-96.5 -108.5q-31 -60 -40 -120t-9 -205v-375h159 v-41h-526z" />
<glyph unicode="o" horiz-adv-x="1046" d="M80 465q0 218 127.5 354.5t331.5 136.5q189 0 309.5 -137t120.5 -354q0 -206 -128 -342.5t-321 -136.5q-147 0 -266 90q-174 132 -174 389zM297 455q0 -236 49.5 -329t175.5 -93q127 0 180 88q52 89 52 340q0 176 -20.5 271.5t-68 136t-135.5 40.5q-132 0 -182.5 -98.5 t-50.5 -355.5z" />
<glyph unicode="p" horiz-adv-x="1105" d="M23 -373h172v1266h-160v41h69q148 0 281 14v-164q51 94 112.5 132t161.5 38q172 0 270.5 -127t98.5 -348q0 -152 -45.5 -262.5t-130.5 -167.5q-94 -63 -215 -63q-91 0 -148.5 32t-103.5 107v-498h170v-45h-532v45zM385 446q0 -121 12 -193.5t41 -121.5q24 -40 68 -65 t94 -25q114 0 164.5 101.5t50.5 328.5q0 226 -48 326t-157 100q-55 0 -101 -27t-71 -73q-53 -100 -53 -351z" />
<glyph unicode="q" horiz-adv-x="1081" d="M80 455q0 236 99.5 368.5t277.5 132.5q102 0 164.5 -40t103.5 -132v158h190v-1317h166v-45h-530v45h174v547q-54 -99 -122.5 -142.5t-170.5 -43.5q-69 0 -132.5 26.5t-109.5 73.5q-52 54 -81 152t-29 217zM291 475q0 -234 44 -332t150 -98q60 0 112 35.5t77 93.5 q57 130 57 334q0 189 -59.5 290t-171.5 101q-49 0 -93.5 -25t-66.5 -65q-49 -91 -49 -334z" />
<glyph unicode="r" horiz-adv-x="835" d="M43 0v41h164v858h-160v41h70q147 0 280 14v-245q58 135 118.5 191t146.5 56q80 0 129 -51.5t49 -134.5q0 -59 -28 -94t-75 -35q-40 0 -66 29t-26 73q0 15 4 51t4 44q0 22 -13.5 36.5t-33.5 14.5q-29 0 -65 -33.5t-68 -91.5q-76 -137 -76 -397v-326h164v-41h-518z" />
<glyph unicode="s" horiz-adv-x="811" d="M61 41v307h56q12 -315 274 -315q95 0 154 45.5t59 118.5q0 63 -43.5 105t-144.5 77q-175 58 -236 108q-88 73 -88 195q0 118 86.5 195t220.5 77q63 0 121.5 -13t155.5 -48v-240h-51q-12 118 -73.5 184t-158.5 66q-74 0 -121 -39t-47 -100q0 -60 44.5 -94.5t176.5 -77.5 q164 -54 235 -124.5t71 -180.5q0 -131 -101.5 -216t-257.5 -85q-70 0 -138.5 11.5t-193.5 43.5z" />
<glyph unicode="t" horiz-adv-x="661" d="M37 883v59h139v248h193v-248h209v-59h-209v-584q0 -101 4.5 -140t17.5 -61q29 -47 84 -47q86 0 133 113l41 -17q-37 -85 -96 -123t-154 -38q-156 0 -200 92q-15 32 -19 76.5t-4 177.5v551h-139z" />
<glyph unicode="u" horiz-adv-x="1206" d="M45 893v41h55q148 0 281 14v-586q0 -181 35 -249t127 -68q72 0 135.5 45.5t97.5 120.5q20 45 26.5 105t6.5 192v385h-172v41h82q147 0 280 14v-907h166v-41h-75q-181 0 -281 -14v184q-57 -94 -140.5 -139t-201.5 -45q-78 0 -140 24t-96 68q-25 34 -34 78.5t-9 136.5v600 h-143z" />
<glyph unicode="v" horiz-adv-x="868" d="M-90 893v41h534v-41h-176l240 -649l250 649h-183v41h383v-41h-141l-360 -913h-45l-359 913h-143z" />
<glyph unicode="w" horiz-adv-x="1470" d="M-76 893v41h512v-41h-157l219 -637l213 637h-179v41h541v-41h-160l203 -637l227 637h-176v41h377v-41h-143l-332 -913h-49l-283 829l-282 -829h-49l-343 913h-139z" />
<glyph unicode="x" horiz-adv-x="909" d="M-51 0v41h127l295 395l-279 457h-143v41h549v-41h-183l189 -322l225 322h-147v41h348v-41h-129l-273 -367l293 -485h131v-41h-532v41h180l-203 350l-254 -350h185v-41h-379z" />
<glyph unicode="y" horiz-adv-x="802" d="M-102 893v41h516v-41h-170l262 -631l196 631h-163v41h366v-41h-147l-320 -1014q-56 -174 -118 -241.5t-168 -67.5q-83 0 -134 43.5t-51 114.5q0 46 24 73t64 27q44 0 63 -26t21 -85q0 -86 68 -86q58 0 103 65.5t89 215.5l27 88l-389 893h-139z" />
<glyph unicode="z" horiz-adv-x="925" d="M25 0l593 889h-161q-105 0 -161 -19t-95 -67q-27 -35 -38 -76t-13 -109h-48v324l768 -8l-589 -887h186q108 0 163 13.5t93 50.5q43 40 61.5 96.5t18.5 148.5v6h53v-362h-831z" />
<glyph unicode="{" horiz-adv-x="745" d="M41 455v39q95 28 129.5 86t34.5 190v299q0 93 12.5 148t48.5 90t93.5 47t154.5 12h35v-41h-23q-82 0 -119.5 -47t-37.5 -150v-344q0 -125 -37.5 -195.5t-126.5 -113.5q164 -69 164 -311v-344q0 -103 37.5 -150t119.5 -47h23v-41h-35q-97 0 -154.5 12t-93.5 47t-48.5 90 t-12.5 148v299q0 132 -34.5 190.5t-129.5 86.5z" />
<glyph unicode="|" horiz-adv-x="1024" d="M440 -342v1708h142v-1708h-142z" />
<glyph unicode="}" horiz-adv-x="745" d="M199 -377h22q82 0 120 47t38 150v344q0 81 20 147t56 103q25 27 88 61q-164 64 -164 309v344q0 103 -38 150t-120 47h-22v41h34q97 0 154.5 -12t94 -47t49 -90t12.5 -148v-299q0 -132 34.5 -190t129.5 -86v-39q-95 -28 -129.5 -86.5t-34.5 -190.5v-299q0 -93 -12.5 -148 t-49 -90t-94 -47t-154.5 -12h-34v41z" />
<glyph unicode="~" horiz-adv-x="1366" d="M262 1272q121 207 279 207q53 0 178 -43q107 -37 162 -37q103 0 188 104l35 -22q-51 -94 -126.5 -150.5t-150.5 -56.5q-33 0 -63 8t-174 55q-68 21 -117 21q-47 0 -80.5 -19t-79.5 -71l-16 -19z" />
<glyph unicode="&#xa1;" horiz-adv-x="587" d="M164 827q0 54 38.5 91.5t94.5 37.5q51 0 89 -38.5t38 -90.5q0 -54 -38 -92.5t-91 -38.5q-55 0 -93 38.5t-38 92.5zM166 -299q0 59 37 305q25 172 33 244l26 250l8 65h56l4 -61q13 -200 20 -244q0 -7 33 -248q27 -220 27 -288q0 -83 -32.5 -129t-92.5 -46q-54 0 -86.5 42 t-32.5 110z" />
<glyph unicode="&#xa2;" d="M129 664q0 140 58 252.5t163 175.5q41 25 81 37.5t114 25.5v197h65v-197q97 -12 152 -31t104 -59q41 -35 68 -87t27 -97q0 -41 -29.5 -68t-73.5 -27q-59 0 -80 35q-9 15 -10.5 29t-1.5 80q-1 72 -43 117.5t-113 54.5v-866q118 -3 208 70t128 204l43 -12 q-44 -148 -137.5 -226t-241.5 -92v-209h-65v209q-69 6 -113.5 20.5t-95.5 45.5q-98 65 -152.5 174t-54.5 244zM344 670q0 -231 86 -344q24 -28 47.5 -44.5t67.5 -33.5v854q-50 -14 -78.5 -32t-48.5 -50q-74 -112 -74 -350z" />
<glyph unicode="&#xa3;" horiz-adv-x="1093" d="M-20 88q0 43 33.5 70.5t84.5 27.5t252 -51q28 41 38.5 80.5t10.5 99.5q0 47 -7 83t-50 198q-6 18 -20 86h-281v59h266q-12 64 -12 113q0 85 34.5 177t94.5 165q125 156 313 156q110 0 186 -49t76 -121q0 -38 -27 -65t-67 -27q-34 0 -57.5 20.5t-46.5 71.5 q-26 60 -58.5 87t-76.5 27q-78 0 -127.5 -59.5t-49.5 -153.5q0 -50 11.5 -111.5t50.5 -230.5h328v-59h-320q16 -71 16 -131q0 -100 -46 -209.5t-130 -210.5q122 -25 222 -25q204 0 302.5 72t98.5 221q0 10 -4 56h51q6 -68 6 -95q0 -157 -61 -260q-43 -72 -126 -113.5 t-183 -41.5q-201 0 -340 145q-125 -104 -254 -104q-57 0 -94 29t-37 73z" />
<glyph unicode="&#xa4;" horiz-adv-x="1024" d="M61 266l136 135q-97 123 -97 267q0 148 99 268l-138 135l50 49l135 -137q118 98 266 98q152 0 268 -98l135 137l50 -49l-138 -135q99 -123 99 -266q0 -152 -99 -269l138 -135l-50 -49l-135 135q-120 -96 -268 -96q-144 0 -266 96l-135 -135zM236 668q0 -112 81 -194.5 t191 -82.5q118 0 200.5 80.5t82.5 194.5q0 117 -81 198.5t-198 81.5q-114 0 -195 -81.5t-81 -196.5z" />
<glyph unicode="&#xa5;" horiz-adv-x="1024" d="M-92 1325v41h608v-41h-209l307 -563l293 563h-205v41h412v-41h-147l-258 -491h295v-56h-324l-47 -92v-127h371v-55h-371v-463h178v-41h-573v41h184v463h-404v55h404v127l-53 92h-351v56h320l-281 491h-149z" />
<glyph unicode="&#xa6;" horiz-adv-x="1024" d="M440 313h142v-655h-142v655zM440 668v698h142v-698h-142z" />
<glyph unicode="&#xa7;" horiz-adv-x="1030" d="M102 -141q0 57 27.5 89t75.5 32q47 0 72.5 -31t25.5 -88q0 -13 -3 -52t-3 -47q0 -54 47 -86t127 -32q123 0 198.5 71t75.5 185q0 103 -77 188q-17 20 -53.5 50t-237.5 190q-266 212 -266 538q0 233 123 376.5t323 143.5q137 0 232.5 -72.5t95.5 -176.5q0 -46 -27.5 -74.5 t-71.5 -28.5q-43 0 -68.5 29t-25.5 76q0 16 5 55.5t5 50.5q0 37 -40 61.5t-103 24.5q-101 0 -169 -62.5t-68 -156.5q0 -80 55 -156q37 -52 225 -204q178 -141 252 -281t74 -334q0 -249 -130.5 -401t-344.5 -152q-148 0 -249.5 79.5t-101.5 195.5zM193 899q0 -98 29.5 -169 t101.5 -146q31 -32 71.5 -66.5t192.5 -157.5q98 -78 142.5 -138t66.5 -142q16 -66 16 -121q0 -18 -6 -80q41 108 41 207q0 154 -57 257t-166 192l-189 153q-192 158 -192 342q0 66 26 154q-77 -120 -77 -285z" />
<glyph unicode="&#xa8;" horiz-adv-x="1024" d="M225 1202q0 43 31 73t74 30q40 0 70 -31t30 -72t-30.5 -71.5t-71.5 -30.5q-42 0 -72.5 30t-30.5 72zM594 1202q0 43 30.5 73t73.5 30q40 0 70.5 -31t30.5 -72t-31 -71.5t-72 -30.5q-42 0 -72 30t-30 72z" />
<glyph unicode="&#xa9;" horiz-adv-x="1570" d="M68 682q0 146 57 278t154 227t231 150.5t283 55.5q190 0 353.5 -96t259 -259.5t95.5 -353.5q0 -145 -57 -276.5t-153 -226.5t-228.5 -151.5t-278.5 -56.5q-193 0 -358 95.5t-261.5 259t-96.5 354.5zM152 682q0 -171 85 -316.5t230.5 -230t316.5 -84.5q129 0 246 50 t202 135t135 202t50 246q0 169 -84 314.5t-228 231t-312 85.5q-177 0 -324.5 -84t-232 -229.5t-84.5 -319.5zM387 676q0 195 115.5 311.5t308.5 116.5q123 0 285 -64v-223h-49q-3 64 -17.5 103t-48.5 73q-66 66 -166 66q-62 0 -115 -24t-84 -66q-59 -82 -59 -281 q0 -218 59 -297q64 -86 183 -86q106 0 172 72t76 201h49v-236q-168 -82 -305 -82q-184 0 -294 113.5t-110 302.5z" />
<glyph unicode="&#xaa;" horiz-adv-x="696" d="M70 700q0 104 71 142q26 12 47.5 17.5t122.5 27.5q31 6 115 31q-3 109 -18.5 137t-75.5 28q-54 0 -76 -28q-6 -9 -7.5 -17.5t-4.5 -50.5q-3 -53 -66 -53q-34 0 -48.5 11.5t-14.5 39.5q0 64 60 100.5t165 36.5q135 0 184 -61q19 -22 25 -49t6 -86v-213q0 -41 1.5 -60.5 t4.5 -36.5t12.5 -22t21 -7.5t34.5 -2.5h22v-37q-12 -2 -22 -2q-91 0 -109.5 1.5t-40.5 8.5q-48 19 -57 63q-63 -81 -186 -81q-80 0 -123 42t-43 121zM213 700q0 -61 18 -88.5t58 -27.5q32 0 63.5 21.5t50.5 56.5q23 45 23 147v65l-61 -16q-94 -23 -123 -53.5t-29 -104.5z " />
<glyph unicode="&#xab;" horiz-adv-x="886" d="M113 498v61l321 293l41 -37l-180 -295l192 -289l-38 -36zM406 498v61l321 293l41 -37l-180 -295l192 -289l-39 -36z" />
<glyph unicode="&#xac;" horiz-adv-x="1024" d="M70 442v103h886v-545h-239v442h-647z" />
<glyph unicode="&#xad;" horiz-adv-x="471" d="M0 465v102h471v-102h-471z" />
<glyph unicode="&#xae;" horiz-adv-x="1570" d="M68 682q0 146 57 278t154 227t231 150.5t283 55.5q190 0 353.5 -96t259 -259.5t95.5 -353.5q0 -145 -57 -276.5t-153 -226.5t-228.5 -151.5t-278.5 -56.5q-193 0 -358 95.5t-261.5 259t-96.5 354.5zM152 682q0 -171 85 -316.5t230.5 -230t316.5 -84.5q129 0 246 50 t202 135t135 202t50 246q0 169 -84 314.5t-228 231t-312 85.5q-177 0 -324.5 -84t-232 -229.5t-84.5 -319.5zM449 272v37h112v746h-112v37h364q109 0 164 -25q39 -20 62.5 -67t23.5 -105q0 -78 -38 -122t-124 -66q117 -15 155.5 -59.5t47.5 -172.5q4 -59 9 -88t20 -47.5 t35 -22.5t61 -4v-41h-99q-55 0 -87 12t-52 40q-18 25 -25.5 58t-11.5 110q-4 61 -12.5 95t-30.5 56t-55 28.5t-92 6.5h-59v-369h114v-37h-370zM705 725h59q83 0 115 35.5t32 126.5q0 93 -32.5 128.5t-118.5 35.5h-55v-326z" />
<glyph unicode="&#xaf;" horiz-adv-x="1024" d="M201 1157v88h620v-88h-620z" />
<glyph unicode="&#xb0;" d="M313 1147q0 97 69 164t167 67q95 0 163 -68t68 -163t-68 -163.5t-165 -68.5t-165.5 68.5t-68.5 163.5zM391 1145q0 -63 46 -108.5t110 -45.5t109.5 45.5t45.5 110.5q0 63 -45 108t-108 45q-66 0 -112 -44.5t-46 -110.5z" />
<glyph unicode="&#xb1;" d="M111 76v96h872v-96h-872zM111 635v96h389v389h96v-389h387v-96h-387v-389h-96v389h-389z" />
<glyph unicode="&#xb2;" horiz-adv-x="700" d="M39 578q153 134 212.5 189.5t98.5 100.5q60 71 86.5 129.5t26.5 122.5q0 78 -42 125t-112 47q-74 0 -125 -54t-51 -132q0 -124 123 -193l-27 -41q-145 91 -145 234q0 109 80 180.5t201 71.5q112 0 180.5 -63.5t68.5 -166.5q0 -78 -40.5 -138.5t-149.5 -145.5l-105 -82 l-92 -82l-16 -12h135h62t46.5 2.5t37 4t26.5 9.5t21.5 14.5t17.5 22.5t18 29.5t19 40.5l43 -21l-94 -223h-498z" />
<glyph unicode="&#xb3;" horiz-adv-x="700" d="M84 723l49 16q32 -78 76 -112.5t110 -34.5q74 0 108 56t34 177q0 109 -28 158t-91 49q-37 0 -70.5 -21t-95.5 -83l-37 33l283 264h-242l-47 -111l-43 16l88 220h410l10 -29l-262 -244q33 8 63 8q95 0 155 -73t60 -187q0 -131 -75 -208.5t-201 -77.5q-97 0 -158.5 44.5 t-95.5 139.5z" />
<glyph unicode="&#xb4;" horiz-adv-x="1024" d="M444 1042l97 271q20 56 34.5 69t55.5 13h67q74 0 74 -52q0 -28 -35 -63l-245 -238h-48z" />
<glyph unicode="&#xb5;" horiz-adv-x="1206" d="M92 -463q0 73 37 305q59 368 59 461v645h193v-448q0 -221 53 -337t154 -116q60 0 111.5 44t80.5 120q17 45 23 107t6 190v440h190v-907h166v-41h-75q-148 0 -281 -14v184q-59 -103 -123 -149t-151 -46q-85 0 -147.5 41.5t-113.5 130.5q2 -28 4.5 -49.5t5.5 -38t10 -61 t15 -94.5q29 -204 29 -338q0 -180 -127 -180q-54 0 -86.5 41.5t-32.5 109.5z" />
<glyph unicode="&#xb6;" d="M-37 866q0 235 99 367.5t276 132.5h790v-41h-165v-1700h165v-45h-340v1745h-81v-1745h-340v45h172v821q-76 -51 -211 -51q-177 0 -271 121.5t-94 349.5z" />
<glyph unicode="&#xb7;" horiz-adv-x="548" d="M145 520q0 54 39 91.5t95 37.5q51 0 89 -38.5t38 -90.5q0 -54 -38.5 -92.5t-91.5 -38.5q-55 0 -93 38.5t-38 92.5z" />
<glyph unicode="&#xb8;" horiz-adv-x="1024" d="M326 -326l26 37q71 -45 125 -45q47 0 75 34.5t28 92.5t-24 89.5t-67 31.5q-31 0 -56 -16.5t-34 -42.5q-6 -16 -16 -80h-45v149q88 39 160 39q89 0 145.5 -48.5t56.5 -123.5q0 -77 -57 -128.5t-143 -51.5q-45 0 -83 13.5t-91 49.5z" />
<glyph unicode="&#xb9;" horiz-adv-x="700" d="M160 1114q99 67 153.5 121t92.5 123h67v-770h127v-41h-403v41h135v606q-30 -30 -105 -86l-39 -29z" />
<glyph unicode="&#xba;" horiz-adv-x="731" d="M84 827q0 132 81 214.5t210 82.5q121 0 197.5 -83t76.5 -214q0 -124 -81 -206t-203 -82q-124 0 -202.5 80t-78.5 208zM231 821q0 -136 29.5 -188.5t104.5 -52.5q78 0 107.5 53t29.5 192q0 151 -27 204.5t-104 53.5q-78 0 -109 -57t-31 -205z" />
<glyph unicode="&#xbb;" horiz-adv-x="886" d="M106 813l39 39l336 -303v-62l-321 -292l-41 36l180 295zM399 813l39 39l336 -303v-62l-321 -292l-41 36l180 295z" />
<glyph unicode="&#xbc;" horiz-adv-x="1607" d="M160 1114q99 67 153.5 121t92.5 123h67v-770h127v-41h-403v41h135v606q-30 -30 -105 -86l-39 -29zM426 0l664 1329l90 2l-660 -1331h-94zM954 254v49l389 518h58v-514h88v99h53v-252h-53v100h-88v-254h-139v254h-308zM1022 307h240v318z" />
<glyph unicode="&#xbd;" horiz-adv-x="1607" d="M160 1114q99 67 153.5 121t92.5 123h67v-770h127v-41h-403v41h135v606q-30 -30 -105 -86l-39 -29zM426 0l664 1331h90l-660 -1331h-94zM946 31q150 132 210.5 188.5t100.5 102.5q60 71 86.5 129t26.5 122q0 78 -41.5 125t-111.5 47q-74 0 -125.5 -54t-51.5 -132 q0 -123 123 -192l-26 -41q-75 47 -110.5 103.5t-35.5 129.5q0 109 80 180.5t201 71.5q112 0 181 -63t69 -166q0 -78 -41 -139t-150 -146l-104 -82l-92 -82l-17 -12h135h62t46.5 2.5t37 4t26.5 9.5t21.5 14.5t17.5 22.5t18 29.5t19 40.5l43 -21l-94 -223h-498z" />
<glyph unicode="&#xbe;" horiz-adv-x="1607" d="M84 723l49 16q32 -78 76 -112.5t110 -34.5q74 0 108 56t34 177q0 109 -28 158t-91 49q-37 0 -70.5 -21t-95.5 -83l-37 33l283 264h-242l-47 -111l-43 16l88 220h410l10 -29l-262 -244q33 8 63 8q95 0 155 -73t60 -187q0 -131 -75 -208.5t-201 -77.5q-97 0 -158.5 44.5 t-95.5 139.5zM428 0l662 1329l90 2l-660 -1331h-92zM956 254v49l387 518h58v-514h88v99h53v-252h-53v100h-88v-254h-139v254h-306zM1024 307h238v318z" />
<glyph unicode="&#xbf;" horiz-adv-x="778" d="M82 -70q0 152 76 244q50 62 186 123q39 18 59 28t39 25.5t26 26.5t13 35t7 46.5t1 65.5q0 29 -2 58h62q2 -29 2 -72q0 -111 -25 -168q-10 -23 -30.5 -40t-104.5 -73q-68 -44 -89 -105t-21 -210q0 -167 37.5 -240t123.5 -73q52 0 83.5 25t31.5 65q0 17 -3.5 27.5 t-27.5 62.5q-8 16 -8 47q0 41 28.5 69.5t71.5 28.5q47 0 80 -36.5t33 -90.5q0 -104 -89.5 -177t-217.5 -73q-155 0 -248.5 104.5t-93.5 276.5zM379 827q0 54 38.5 91.5t94.5 37.5q51 0 89 -38.5t38 -90.5q0 -54 -38 -92.5t-91 -38.5q-55 0 -93 38.5t-38 92.5z" />
<glyph unicode="&#xc0;" horiz-adv-x="1089" d="M-82 0v41h162l457 1339h32l441 -1339h176v-41h-617v41h207l-133 432h-356l-144 -432h205v-41h-430zM287 1710q0 37 69 37h70q46 0 61.5 -12t32.5 -62l66 -190h-66l-205 180q-28 22 -28 47zM303 524h328l-158 500z" />
<glyph unicode="&#xc1;" horiz-adv-x="1089" d="M-82 0v41h162l457 1339h32l441 -1339h176v-41h-617v41h207l-133 432h-356l-144 -432h205v-41h-430zM303 524h328l-158 500zM518 1483l66 190q17 50 32.5 62t61.5 12h70q69 0 69 -37q0 -24 -29 -47l-204 -180h-66z" />
<glyph unicode="&#xc2;" horiz-adv-x="1089" d="M-82 0v41h162l457 1339h32l441 -1339h176v-41h-617v41h207l-133 432h-356l-144 -432h205v-41h-430zM303 524h328l-158 500zM334 1489l211 264h73l222 -264h-166l-129 164l-129 -164h-82z" />
<glyph unicode="&#xc3;" horiz-adv-x="1089" d="M-82 0v41h162l457 1339h32l441 -1339h176v-41h-617v41h207l-133 432h-356l-144 -432h205v-41h-430zM260 1524q72 141 108.5 179t100.5 38q45 0 125 -37q122 -55 174 -55q34 0 54 17.5t52 76.5l52 -19q-50 -119 -98 -170t-109 -51q-33 0 -59.5 9t-118.5 49q-81 36 -123 36 q-34 0 -59 -21.5t-52 -76.5zM303 524h328l-158 500z" />
<glyph unicode="&#xc4;" horiz-adv-x="1089" d="M-82 0v41h162l457 1339h32l441 -1339h176v-41h-617v41h207l-133 432h-356l-144 -432h205v-41h-430zM213 1599q0 47 35 81t84 34q46 0 80 -35t34 -82t-34.5 -81.5t-81.5 -34.5q-48 0 -82.5 34.5t-34.5 83.5zM303 524h328l-158 500zM670 1599q0 47 34.5 81t83.5 34 q46 0 80.5 -35t34.5 -82t-35 -81.5t-82 -34.5q-48 0 -82 34.5t-34 83.5z" />
<glyph unicode="&#xc5;" horiz-adv-x="1089" d="M-82 0v41h162l457 1339h32l441 -1339h176v-41h-617v41h207l-133 432h-356l-144 -432h205v-41h-430zM303 524h328l-158 500zM387 1612q0 70 51 120t123 50q69 0 118.5 -50.5t49.5 -119.5q0 -70 -50.5 -121t-119.5 -51q-72 0 -122 50.5t-50 121.5zM442 1612q0 -48 34 -82.5 t83 -34.5q46 0 80.5 35t34.5 82q0 46 -34.5 80t-80.5 34q-48 0 -82.5 -33.5t-34.5 -80.5z" />
<glyph unicode="&#xc6;" horiz-adv-x="1789" d="M-158 0v41h152l661 1284h-176v41h1149l19 -426h-58q-8 105 -32.5 174t-73.5 123q-41 46 -107 64t-196 18h-248v-594h108q77 0 118 12t69 43q28 32 38.5 74t10.5 119v41h49v-649h-49q2 25 2 55q0 152 -47.5 202t-190.5 50h-108v-625h244q134 0 201.5 17t121.5 63 q70 63 103.5 139.5t44.5 198.5h57l-18 -465h-1147v41h184v453h-428l-227 -453h204v-41h-430zM324 547h399v786z" />
<glyph unicode="&#xc7;" horiz-adv-x="1345" d="M88 672q0 326 182.5 520t489.5 194q107 0 208.5 -23.5t239.5 -80.5v-360h-59q-3 107 -26.5 172t-80.5 125q-111 114 -278 114q-103 0 -190.5 -42t-139.5 -117q-96 -140 -96 -480q0 -372 98 -510q51 -73 129 -112t174 -39q175 0 284 122t126 339h59v-381 q-137 -71 -250 -102t-231 -31q-292 0 -465.5 188.5t-173.5 503.5zM483 -313l43 22q39 -82 131 -82q111 0 111 137q0 140 -106 140q-98 0 -119 -127h-45v129q64 26 104 35.5t86 9.5q101 0 163 -51t62 -136q0 -83 -62.5 -135.5t-160.5 -52.5q-72 0 -121 26.5t-86 84.5z" />
<glyph unicode="&#xc8;" horiz-adv-x="1316" d="M68 0v41h180v1284h-180v41h1087l12 -418h-49q-20 192 -123 301q-39 39 -93.5 54.5t-156.5 15.5h-284v-592h98q140 0 192 50.5t52 185.5v53h49v-651h-49l2 77q3 144 -64 193q-28 22 -66 29.5t-116 7.5h-98v-625h276q117 0 186 20t119 66q59 57 91 134t45 198h53l-19 -465 h-1144zM412 1710q0 37 69 37h70q46 0 61.5 -12t32.5 -62l66 -190h-66l-205 180q-28 22 -28 47z" />
<glyph unicode="&#xc9;" horiz-adv-x="1316" d="M68 0v41h180v1284h-180v41h1087l12 -418h-49q-20 192 -123 301q-39 39 -93.5 54.5t-156.5 15.5h-284v-592h98q140 0 192 50.5t52 185.5v53h49v-651h-49l2 77q3 144 -64 193q-28 22 -66 29.5t-116 7.5h-98v-625h276q117 0 186 20t119 66q59 57 91 134t45 198h53l-19 -465 h-1144zM625 1483l65 190q17 50 32.5 62t61.5 12h70q70 0 70 -37q0 -24 -29 -47l-205 -180h-65z" />
<glyph unicode="&#xca;" horiz-adv-x="1316" d="M68 0v41h180v1284h-180v41h1087l12 -418h-49q-20 192 -123 301q-39 39 -93.5 54.5t-156.5 15.5h-284v-592h98q140 0 192 50.5t52 185.5v53h49v-651h-49l2 77q3 144 -64 193q-28 22 -66 29.5t-116 7.5h-98v-625h276q117 0 186 20t119 66q59 57 91 134t45 198h53l-19 -465 h-1144zM432 1489l211 264h74l221 -264h-166l-129 164l-129 -164h-82z" />
<glyph unicode="&#xcb;" horiz-adv-x="1316" d="M68 0v41h180v1284h-180v41h1087l12 -418h-49q-20 192 -123 301q-39 39 -93.5 54.5t-156.5 15.5h-284v-592h98q140 0 192 50.5t52 185.5v53h49v-651h-49l2 77q3 144 -64 193q-28 22 -66 29.5t-116 7.5h-98v-625h276q117 0 186 20t119 66q59 57 91 134t45 198h53l-19 -465 h-1144zM334 1599q0 47 35 81t84 34q46 0 80 -35t34 -82t-34.5 -81.5t-81.5 -34.5q-48 0 -82.5 34.5t-34.5 83.5zM791 1599q0 47 34.5 81t83.5 34q46 0 80.5 -35t34.5 -82t-35 -81.5t-82 -34.5q-48 0 -82 34.5t-34 83.5z" />
<glyph unicode="&#xcc;" horiz-adv-x="733" d="M82 0v41h174v1284h-174v41h569v-41h-180v-1284h180v-41h-569zM109 1710q0 37 69 37h70q46 0 61.5 -12t32.5 -62l66 -190h-66l-205 180q-28 22 -28 47z" />
<glyph unicode="&#xcd;" horiz-adv-x="733" d="M82 0v41h174v1284h-174v41h569v-41h-180v-1284h180v-41h-569zM340 1483l66 190q17 50 32.5 62t61.5 12h69q70 0 70 -37q0 -24 -29 -47l-204 -180h-66z" />
<glyph unicode="&#xce;" horiz-adv-x="733" d="M82 0v41h174v1284h-174v41h569v-41h-180v-1284h180v-41h-569zM147 1489l211 264h74l221 -264h-166l-129 164l-129 -164h-82z" />
<glyph unicode="&#xcf;" horiz-adv-x="733" d="M82 0v41h174v1284h-174v41h569v-41h-180v-1284h180v-41h-569zM117 1599q0 47 35 81t84 34q46 0 80 -35t34 -82t-35 -81.5t-82 -34.5q-48 0 -82 34.5t-34 83.5zM410 1599q0 47 34.5 81t83.5 34q46 0 80.5 -35t34.5 -82t-35 -81.5t-82 -34.5q-48 0 -82 34.5t-34 83.5z" />
<glyph unicode="&#xd0;" horiz-adv-x="1519" d="M68 0v41h180v680h-166v57h166v547h-180v41h737q261 0 403 -111q107 -85 164.5 -229.5t57.5 -333.5q0 -213 -70.5 -375.5t-196.5 -240.5q-120 -76 -356 -76h-739zM463 47h291q103 0 167.5 24.5t116.5 82.5q71 78 111.5 220.5t40.5 313.5q0 209 -54.5 366.5t-148.5 215.5 q-44 29 -94 39t-145 10h-285v-541h252v-57h-252v-674z" />
<glyph unicode="&#xd1;" horiz-adv-x="1443" d="M55 0v41h178v1284h-178v41h445l665 -979v938h-204v41h430v-41h-170v-1335l-31 -10l-901 1306v-1245h211v-41h-445zM438 1524q72 141 108.5 179t100.5 38q45 0 125 -37q122 -55 174 -55q34 0 54.5 18t52.5 76l51 -19q-50 -119 -98 -170t-109 -51q-33 0 -59.5 9t-118.5 49 q-81 36 -123 36q-34 0 -59 -21.5t-52 -76.5z" />
<glyph unicode="&#xd2;" horiz-adv-x="1437" d="M88 676q0 324 173 517t462 193q290 0 458.5 -187t168.5 -509q0 -193 -75 -356t-206 -252q-145 -102 -354 -102q-278 0 -452.5 193.5t-174.5 502.5zM338 657q0 -210 27.5 -329t91.5 -189q46 -49 116.5 -77.5t147.5 -28.5q88 0 160 35t118 100q56 79 78.5 193t22.5 325 q0 235 -24 353t-87 190q-43 49 -111.5 76.5t-148.5 27.5t-151.5 -28t-116.5 -78q-66 -72 -94.5 -203t-28.5 -367zM467 1710q0 37 70 37h69q46 0 61.5 -12t32.5 -62l66 -190h-66l-204 180q-29 23 -29 47z" />
<glyph unicode="&#xd3;" horiz-adv-x="1437" d="M88 676q0 324 173 517t462 193q290 0 458.5 -187t168.5 -509q0 -193 -75 -356t-206 -252q-145 -102 -354 -102q-278 0 -452.5 193.5t-174.5 502.5zM338 657q0 -210 27.5 -329t91.5 -189q46 -49 116.5 -77.5t147.5 -28.5q88 0 160 35t118 100q56 79 78.5 193t22.5 325 q0 235 -24 353t-87 190q-43 49 -111.5 76.5t-148.5 27.5t-151.5 -28t-116.5 -78q-66 -72 -94.5 -203t-28.5 -367zM684 1483l66 190q17 50 32.5 62t61.5 12h69q70 0 70 -37q0 -24 -29 -47l-204 -180h-66z" />
<glyph unicode="&#xd4;" horiz-adv-x="1437" d="M88 676q0 324 173 517t462 193q290 0 458.5 -187t168.5 -509q0 -193 -75 -356t-206 -252q-145 -102 -354 -102q-278 0 -452.5 193.5t-174.5 502.5zM338 657q0 -210 27.5 -329t91.5 -189q46 -49 116.5 -77.5t147.5 -28.5q88 0 160 35t118 100q56 79 78.5 193t22.5 325 q0 235 -24 353t-87 190q-43 49 -111.5 76.5t-148.5 27.5t-151.5 -28t-116.5 -78q-66 -72 -94.5 -203t-28.5 -367zM500 1489l211 264h73l222 -264h-166l-129 164l-129 -164h-82z" />
<glyph unicode="&#xd5;" horiz-adv-x="1437" d="M88 676q0 324 173 517t462 193q290 0 458.5 -187t168.5 -509q0 -193 -75 -356t-206 -252q-145 -102 -354 -102q-278 0 -452.5 193.5t-174.5 502.5zM338 657q0 -210 27.5 -329t91.5 -189q46 -49 116.5 -77.5t147.5 -28.5q88 0 160 35t118 100q56 79 78.5 193t22.5 325 q0 235 -24 353t-87 190q-43 49 -111.5 76.5t-148.5 27.5t-151.5 -28t-116.5 -78q-66 -72 -94.5 -203t-28.5 -367zM446 1524q72 141 108.5 179t100.5 38q45 0 125 -37q122 -55 174 -55q34 0 54.5 18t52.5 76l51 -19q-50 -119 -98 -170t-109 -51q-33 0 -59.5 9t-118.5 49 q-81 36 -123 36q-34 0 -58 -21.5t-52 -76.5z" />
<glyph unicode="&#xd6;" horiz-adv-x="1437" d="M88 676q0 324 173 517t462 193q290 0 458.5 -187t168.5 -509q0 -193 -75 -356t-206 -252q-145 -102 -354 -102q-278 0 -452.5 193.5t-174.5 502.5zM338 657q0 -210 27.5 -329t91.5 -189q46 -49 116.5 -77.5t147.5 -28.5q88 0 160 35t118 100q56 79 78.5 193t22.5 325 q0 235 -24 353t-87 190q-43 49 -111.5 76.5t-148.5 27.5t-151.5 -28t-116.5 -78q-66 -72 -94.5 -203t-28.5 -367zM387 1599q0 47 35 81t84 34q46 0 80.5 -35t34.5 -82t-35 -81.5t-82 -34.5q-48 0 -82.5 34.5t-34.5 83.5zM844 1599q0 47 35 81t84 34q46 0 80 -35t34 -82 t-34.5 -81.5t-81.5 -34.5q-48 0 -82.5 34.5t-34.5 83.5z" />
<glyph unicode="&#xd7;" d="M205 408l274 274l-274 276l67 66l275 -274l274 274l68 -68l-275 -274l275 -274l-68 -68l-274 274l-275 -274z" />
<glyph unicode="&#xd8;" horiz-adv-x="1445" d="M88 668q0 204 67.5 358t198.5 248q154 112 365 112q139 0 245.5 -42t204.5 -136l164 174l43 -36l-168 -185q76 -104 108 -206.5t32 -245.5q0 -215 -79 -380.5t-223.5 -257t-330.5 -91.5q-130 0 -231 39t-197 128l-152 -161l-43 41l154 166q-86 108 -122 217.5t-36 257.5z M338 651q0 -98 5.5 -160.5t23.5 -164.5l694 761q-26 75 -53.5 115.5t-71.5 69.5q-86 61 -219 61q-193 0 -295 -151q-84 -124 -84 -531zM385 256q49 -114 132 -168.5t206 -54.5q204 0 299 168q40 71 58 182.5t18 298.5q0 170 -21 334z" />
<glyph unicode="&#xd9;" horiz-adv-x="1439" d="M47 1325v41h578v-41h-197v-901q0 -130 20 -203t66 -110q87 -72 287 -72q245 0 327 108q34 43 47 102.5t13 174.5v901h-193v41h424v-41h-172v-901q0 -120 -14 -185.5t-49 -115.5q-53 -74 -160 -108.5t-285 -34.5q-188 0 -302.5 35t-168.5 108q-35 49 -44 100t-9 201v901 h-168zM516 1710q0 37 70 37h69q46 0 62 -12.5t33 -61.5l65 -190h-65l-205 180q-29 23 -29 47z" />
<glyph unicode="&#xda;" horiz-adv-x="1439" d="M47 1325v41h578v-41h-197v-901q0 -130 20 -203t66 -110q87 -72 287 -72q245 0 327 108q34 43 47 102.5t13 174.5v901h-193v41h424v-41h-172v-901q0 -120 -14 -185.5t-49 -115.5q-53 -74 -160 -108.5t-285 -34.5q-188 0 -302.5 35t-168.5 108q-35 49 -44 100t-9 201v901 h-168zM782 1483l66 190q17 50 32.5 62t61.5 12h70q69 0 69 -37q0 -25 -28 -47l-205 -180h-66z" />
<glyph unicode="&#xdb;" horiz-adv-x="1439" d="M47 1325v41h578v-41h-197v-901q0 -130 20 -203t66 -110q87 -72 287 -72q245 0 327 108q34 43 47 102.5t13 174.5v901h-193v41h424v-41h-172v-901q0 -120 -14 -185.5t-49 -115.5q-53 -74 -160 -108.5t-285 -34.5q-188 0 -302.5 35t-168.5 108q-35 49 -44 100t-9 201v901 h-168zM590 1489l211 264h73l222 -264h-166l-129 164l-129 -164h-82z" />
<glyph unicode="&#xdc;" horiz-adv-x="1439" d="M47 1325v41h578v-41h-197v-901q0 -130 20 -203t66 -110q87 -72 287 -72q245 0 327 108q34 43 47 102.5t13 174.5v901h-193v41h424v-41h-172v-901q0 -120 -14 -185.5t-49 -115.5q-53 -74 -160 -108.5t-285 -34.5q-188 0 -302.5 35t-168.5 108q-35 49 -44 100t-9 201v901 h-168zM451 1599q0 47 34.5 81t83.5 34q46 0 80.5 -35t34.5 -82t-35 -81.5t-82 -34.5q-48 0 -82 34.5t-34 83.5zM907 1599q0 47 35 81t84 34q46 0 80.5 -35t34.5 -82t-35 -81.5t-82 -34.5q-48 0 -82.5 34.5t-34.5 83.5z" />
<glyph unicode="&#xdd;" horiz-adv-x="1024" d="M-92 1325v41h608v-41h-209l307 -563l293 563h-205v41h412v-41h-147l-334 -639v-645h178v-41h-573v41h184v645l-365 639h-149zM559 1483l66 190q17 50 32.5 62t61.5 12h69q70 0 70 -37q0 -24 -29 -47l-204 -180h-66z" />
<glyph unicode="&#xde;" horiz-adv-x="1124" d="M68 0v41h178v1284h-174v41h569v-41h-180v-164h223q175 0 270 -59q68 -44 105 -125t37 -186q0 -245 -168 -330q-47 -23 -100.5 -32t-143.5 -9h-225v-379h174v-41h-565zM459 471h123q168 0 229 63.5t61 237.5q0 240 -98 307q-30 22 -67 28.5t-121 6.5h-127v-643z" />
<glyph unicode="&#xdf;" horiz-adv-x="1089" d="M31 0v41h145v889q0 166 11.5 233t48.5 113q41 53 133.5 83t212.5 30q183 0 278.5 -69t95.5 -200q0 -64 -27 -112.5t-75 -71.5q-52 -24 -147 -29q75 -14 111.5 -26t64.5 -33q129 -94 129 -385q0 -231 -81 -354t-233 -123q-103 0 -147.5 57.5t-44.5 189.5q0 37 2 68h43 q0 -110 8 -145q23 -111 107 -111q46 0 78 28t42 79q17 84 17 344q0 120 -9.5 192t-35 118t-66.5 62.5t-108 16.5h-33v57q134 0 178.5 35t44.5 141q0 223 -201 223q-54 0 -97.5 -18.5t-65.5 -50.5q-43 -65 -43 -283v-948h129v-41h-465z" />
<glyph unicode="&#xe0;" horiz-adv-x="1036" d="M80 254q0 164 110 225q41 23 77.5 33t193.5 43q76 16 194 55q-3 125 -8 170.5t-18 73.5q-29 59 -135 59q-92 0 -132 -53q-13 -18 -15 -31.5t-7 -91.5q-3 -78 -94 -78q-51 0 -71.5 17.5t-20.5 58.5q0 103 93.5 161t260.5 58q211 0 287 -98q28 -35 37.5 -80.5t9.5 -142.5 v-361q0 -107 8 -152.5t30 -62t74 -16.5q20 0 43 2v-41q-20 -2 -98 -2h-80q-75 0 -121 37t-55 104q-52 -79 -125.5 -116t-179.5 -37q-126 0 -192 68t-66 198zM217 1343q0 52 74 52h67q41 0 56 -13.5t35 -68.5l96 -271h-47l-244 238q-37 37 -37 63zM289 254 q0 -108 32.5 -158.5t102.5 -50.5q55 0 108 37.5t84 99.5q39 77 39 254v127q-68 -23 -114 -35q-94 -25 -131 -41.5t-66 -46.5q-55 -58 -55 -186z" />
<glyph unicode="&#xe1;" horiz-adv-x="1036" d="M80 254q0 164 110 225q41 23 77.5 33t193.5 43q76 16 194 55q-3 125 -8 170.5t-18 73.5q-29 59 -135 59q-92 0 -132 -53q-13 -18 -15 -31.5t-7 -91.5q-3 -78 -94 -78q-51 0 -71.5 17.5t-20.5 58.5q0 103 93.5 161t260.5 58q211 0 287 -98q28 -35 37.5 -80.5t9.5 -142.5 v-361q0 -107 8 -152.5t30 -62t74 -16.5q20 0 43 2v-41q-20 -2 -98 -2h-80q-75 0 -121 37t-55 104q-52 -79 -125.5 -116t-179.5 -37q-126 0 -192 68t-66 198zM289 254q0 -108 32.5 -158.5t102.5 -50.5q55 0 108 37.5t84 99.5q39 77 39 254v127q-68 -23 -114 -35 q-94 -25 -131 -41.5t-66 -46.5q-55 -58 -55 -186zM477 1042l96 271q20 55 35 68.5t56 13.5h67q74 0 74 -52q0 -28 -35 -63l-246 -238h-47z" />
<glyph unicode="&#xe2;" horiz-adv-x="1036" d="M80 254q0 164 110 225q41 23 77.5 33t193.5 43q76 16 194 55q-3 125 -8 170.5t-18 73.5q-29 59 -135 59q-92 0 -132 -53q-13 -18 -15 -31.5t-7 -91.5q-3 -78 -94 -78q-51 0 -71.5 17.5t-20.5 58.5q0 103 93.5 161t260.5 58q211 0 287 -98q28 -35 37.5 -80.5t9.5 -142.5 v-361q0 -107 8 -152.5t30 -62t74 -16.5q20 0 43 2v-41q-20 -2 -98 -2h-80q-75 0 -121 37t-55 104q-52 -79 -125.5 -116t-179.5 -37q-126 0 -192 68t-66 198zM289 254q0 -108 32.5 -158.5t102.5 -50.5q55 0 108 37.5t84 99.5q39 77 39 254v127q-68 -23 -114 -35 q-94 -25 -131 -41.5t-66 -46.5q-55 -58 -55 -186zM319 1040l195 353h33l201 -353h-150l-111 201l-102 -201h-66z" />
<glyph unicode="&#xe3;" horiz-adv-x="1036" d="M80 254q0 164 110 225q41 23 77.5 33t193.5 43q76 16 194 55q-3 125 -8 170.5t-18 73.5q-29 59 -135 59q-92 0 -132 -53q-13 -18 -15 -31.5t-7 -91.5q-3 -78 -94 -78q-51 0 -71.5 17.5t-20.5 58.5q0 103 93.5 161t260.5 58q211 0 287 -98q28 -35 37.5 -80.5t9.5 -142.5 v-361q0 -107 8 -152.5t30 -62t74 -16.5q20 0 43 2v-41q-20 -2 -98 -2h-80q-75 0 -121 37t-55 104q-52 -79 -125.5 -116t-179.5 -37q-126 0 -192 68t-66 198zM233 1116q46 122 86.5 166.5t104.5 44.5q47 0 141 -47q93 -45 129 -45q30 0 53 20.5t56 79.5l51 -24 q-54 -124 -94 -169.5t-96 -45.5q-54 0 -154 45q-94 43 -133 43q-31 0 -49.5 -17t-44.5 -71zM289 254q0 -108 32.5 -158.5t102.5 -50.5q55 0 108 37.5t84 99.5q39 77 39 254v127q-68 -23 -114 -35q-94 -25 -131 -41.5t-66 -46.5q-55 -58 -55 -186z" />
<glyph unicode="&#xe4;" horiz-adv-x="1036" d="M80 254q0 164 110 225q41 23 77.5 33t193.5 43q76 16 194 55q-3 125 -8 170.5t-18 73.5q-29 59 -135 59q-92 0 -132 -53q-13 -18 -15 -31.5t-7 -91.5q-3 -78 -94 -78q-51 0 -71.5 17.5t-20.5 58.5q0 103 93.5 161t260.5 58q211 0 287 -98q28 -35 37.5 -80.5t9.5 -142.5 v-361q0 -107 8 -152.5t30 -62t74 -16.5q20 0 43 2v-41q-20 -2 -98 -2h-80q-75 0 -121 37t-55 104q-52 -79 -125.5 -116t-179.5 -37q-126 0 -192 68t-66 198zM231 1202q0 43 31 73t74 30q40 0 70 -31t30 -72t-30.5 -71.5t-71.5 -30.5q-42 0 -72.5 30t-30.5 72zM289 254 q0 -108 32.5 -158.5t102.5 -50.5q55 0 108 37.5t84 99.5q39 77 39 254v127q-68 -23 -114 -35q-94 -25 -131 -41.5t-66 -46.5q-55 -58 -55 -186zM600 1202q0 43 31 73t74 30q40 0 70 -31t30 -72t-31 -71.5t-72 -30.5q-42 0 -72 30t-30 72z" />
<glyph unicode="&#xe5;" horiz-adv-x="1036" d="M80 254q0 164 110 225q41 23 77.5 33t193.5 43q76 16 194 55q-3 125 -8 170.5t-18 73.5q-29 59 -135 59q-92 0 -132 -53q-13 -18 -15 -31.5t-7 -91.5q-3 -78 -94 -78q-51 0 -71.5 17.5t-20.5 58.5q0 103 93.5 161t260.5 58q211 0 287 -98q28 -35 37.5 -80.5t9.5 -142.5 v-361q0 -107 8 -152.5t30 -62t74 -16.5q20 0 43 2v-41q-20 -2 -98 -2h-80q-75 0 -121 37t-55 104q-52 -79 -125.5 -116t-179.5 -37q-126 0 -192 68t-66 198zM289 254q0 -108 32.5 -158.5t102.5 -50.5q55 0 108 37.5t84 99.5q39 77 39 254v127q-68 -23 -114 -35 q-94 -25 -131 -41.5t-66 -46.5q-55 -58 -55 -186zM334 1217q0 70 51 119.5t123 49.5q69 0 118.5 -50t49.5 -119q0 -70 -50.5 -121.5t-119.5 -51.5q-72 0 -122 51t-50 122zM389 1217q0 -48 34 -82.5t83 -34.5q46 0 80.5 35t34.5 82q0 46 -34.5 80t-80.5 34q-48 0 -82.5 -33.5 t-34.5 -80.5z" />
<glyph unicode="&#xe6;" horiz-adv-x="1550" d="M80 258q0 150 98 211q40 25 82.5 38.5t177.5 43.5q138 33 215 63l-2 78q-3 127 -37.5 175t-124.5 48q-78 0 -113 -35.5t-36 -117.5q-1 -57 -22.5 -78.5t-75.5 -21.5q-88 0 -88 75q0 101 91 159t251 58q108 0 168.5 -25t109.5 -91q58 61 127 88.5t166 27.5q206 0 324 -149 q44 -57 63 -116t25 -157h-639q-2 -23 -2 -53q0 -119 9.5 -181.5t37.5 -119.5q31 -63 95 -101t140 -38q106 0 185 62.5t125 183.5l49 -15q-109 -284 -406 -284q-181 0 -301 88q-36 27 -58 58.5t-42 84.5q-43 -120 -124.5 -175.5t-213.5 -55.5q-254 0 -254 272zM291 248 q0 -203 131 -203q43 0 87 25.5t73 68.5q41 63 55 135t14 238v53q-59 -20 -192 -57q-91 -26 -129.5 -86t-38.5 -174zM840 586h415q-3 83 -9 123.5t-21 83.5q-22 57 -66 88.5t-104 31.5q-111 0 -162 -102q-23 -43 -33.5 -88.5t-19.5 -136.5z" />
<glyph unicode="&#xe7;" horiz-adv-x="991" d="M80 463q0 215 131 353t334 138q150 0 256 -79t106 -191q0 -43 -27.5 -68.5t-74.5 -25.5q-58 0 -76 35q-9 15 -11 29.5t-3 86.5q-2 74 -49.5 120t-122.5 46q-248 0 -248 -446q0 -200 73 -311t203 -111q100 0 189 67q47 35 78 82t57 125l43 -12q-29 -83 -57 -129t-74 -86 q-56 -47 -129.5 -73.5t-151.5 -26.5q-195 0 -320.5 135t-125.5 342zM367 -326l26 37q71 -45 125 -45q47 0 75 34.5t28 92.5t-24 89.5t-67 31.5q-31 0 -56 -16.5t-34 -42.5q-6 -16 -16 -80h-45v149q88 39 160 39q89 0 145.5 -48.5t56.5 -123.5q0 -77 -57 -128.5t-143 -51.5 q-45 0 -83 13.5t-91 49.5z" />
<glyph unicode="&#xe8;" horiz-adv-x="1007" d="M80 469q0 213 124 349t318 136q102 0 188.5 -39.5t143.5 -111.5q43 -57 61 -116t21 -152h-641q2 -138 11.5 -215.5t33.5 -133.5q29 -69 93.5 -108t148.5 -39q207 0 307 248l47 -17q-55 -147 -154.5 -215.5t-255.5 -68.5q-206 0 -326 130t-120 353zM225 1343q0 52 74 52 h68q41 0 55.5 -13t34.5 -69l96 -271h-47l-244 238q-37 37 -37 63zM295 586h418q-5 96 -12 140t-27 87q-22 46 -64.5 72t-97.5 26q-51 0 -93 -22t-65 -62q-26 -43 -37 -90t-22 -151z" />
<glyph unicode="&#xe9;" horiz-adv-x="1007" d="M80 469q0 213 124 349t318 136q102 0 188.5 -39.5t143.5 -111.5q43 -57 61 -116t21 -152h-641q2 -138 11.5 -215.5t33.5 -133.5q29 -69 93.5 -108t148.5 -39q207 0 307 248l47 -17q-55 -147 -154.5 -215.5t-255.5 -68.5q-206 0 -326 130t-120 353zM295 586h418 q-5 96 -12 140t-27 87q-22 46 -64.5 72t-97.5 26q-51 0 -93 -22t-65 -62q-26 -43 -37 -90t-22 -151zM498 1042l96 271q20 56 34.5 69t55.5 13h68q73 0 73 -52q0 -29 -34 -63l-246 -238h-47z" />
<glyph unicode="&#xea;" horiz-adv-x="1007" d="M80 469q0 213 124 349t318 136q102 0 188.5 -39.5t143.5 -111.5q43 -57 61 -116t21 -152h-641q2 -138 11.5 -215.5t33.5 -133.5q29 -69 93.5 -108t148.5 -39q207 0 307 248l47 -17q-55 -147 -154.5 -215.5t-255.5 -68.5q-206 0 -326 130t-120 353zM295 586h418 q-5 96 -12 140t-27 87q-22 46 -64.5 72t-97.5 26q-51 0 -93 -22t-65 -62q-26 -43 -37 -90t-22 -151zM340 1040l195 353h32l201 -353h-150l-110 201l-102 -201h-66z" />
<glyph unicode="&#xeb;" horiz-adv-x="1007" d="M80 469q0 213 124 349t318 136q102 0 188.5 -39.5t143.5 -111.5q43 -57 61 -116t21 -152h-641q2 -138 11.5 -215.5t33.5 -133.5q29 -69 93.5 -108t148.5 -39q207 0 307 248l47 -17q-55 -147 -154.5 -215.5t-255.5 -68.5q-206 0 -326 130t-120 353zM266 1202q0 43 31 73 t74 30q40 0 70 -31t30 -72t-30.5 -71.5t-71.5 -30.5q-43 0 -73 30t-30 72zM295 586h418q-5 96 -12 140t-27 87q-22 46 -64.5 72t-97.5 26q-51 0 -93 -22t-65 -62q-26 -43 -37 -90t-22 -151zM635 1202q0 43 30.5 73t73.5 30q40 0 70.5 -31t30.5 -72t-31 -71.5t-72 -30.5 q-42 0 -72 30t-30 72z" />
<glyph unicode="&#xec;" horiz-adv-x="618" d="M8 1343q0 52 74 52h68q41 0 55.5 -13t34.5 -69l96 -271h-47l-244 238q-37 37 -37 63zM43 0v41h172v852h-166v41h76q145 0 278 14v-907h158v-41h-518z" />
<glyph unicode="&#xed;" horiz-adv-x="618" d="M43 0v41h172v852h-166v41h76q145 0 278 14v-907h158v-41h-518zM281 1042l96 271q20 56 34.5 69t55.5 13h68q73 0 73 -52q0 -28 -35 -63l-245 -238h-47z" />
<glyph unicode="&#xee;" horiz-adv-x="618" d="M43 0v41h172v852h-166v41h76q145 0 278 14v-907h158v-41h-518zM123 1040l194 353h33l201 -353h-150l-110 201l-103 -201h-65z" />
<glyph unicode="&#xef;" horiz-adv-x="618" d="M43 0v41h172v852h-166v41h76q145 0 278 14v-907h158v-41h-518zM70 1202q0 43 30.5 73t73.5 30q40 0 70 -31t30 -72t-30.5 -71.5t-71.5 -30.5q-42 0 -72 30t-30 72zM356 1202q0 43 31 73t74 30q40 0 70 -31t30 -72t-30.5 -71.5t-71.5 -30.5q-43 0 -73 30t-30 72z" />
<glyph unicode="&#xf0;" horiz-adv-x="1046" d="M80 463q0 121 40.5 220t115.5 165q59 50 136.5 78t155.5 28q56 0 96.5 -13.5t84.5 -47.5q-43 153 -131 262l-144 -121l-37 41l146 121q-75 80 -193 145l27 45q98 -52 143 -79t84 -58l154 129l35 -41l-146 -123q160 -138 243 -313.5t83 -376.5q0 -246 -123.5 -392 t-329.5 -146q-147 0 -266 90q-174 134 -174 387zM297 455q0 -236 49.5 -329t175.5 -93q127 0 180 88q52 89 52 340q0 176 -20.5 271.5t-68 136t-135.5 40.5q-132 0 -182.5 -98.5t-50.5 -355.5z" />
<glyph unicode="&#xf1;" horiz-adv-x="1216" d="M43 0v41h172v852h-170v41h96q155 0 279 14v-192q27 50 48.5 76t55.5 51q104 71 236 71q173 0 227 -127q18 -43 21.5 -69.5t3.5 -136.5v-580h151v-41h-497v41h155v580q0 151 -30.5 209.5t-108.5 58.5q-67 0 -126.5 -39.5t-96.5 -108.5q-31 -60 -40 -120t-9 -205v-375h159 v-41h-526zM367 1116q46 122 86 166.5t104 44.5q47 0 141 -47q93 -45 129 -45q30 0 53 20.5t56 79.5l51 -24q-54 -124 -94 -169.5t-96 -45.5q-54 0 -154 45q-94 43 -133 43q-31 0 -49.5 -17t-44.5 -71z" />
<glyph unicode="&#xf2;" horiz-adv-x="1046" d="M80 465q0 218 127.5 354.5t331.5 136.5q189 0 309.5 -137t120.5 -354q0 -206 -128 -342.5t-321 -136.5q-147 0 -266 90q-174 132 -174 389zM229 1343q0 52 74 52h68q41 0 55.5 -13t34.5 -69l96 -271h-47l-244 238q-37 37 -37 63zM297 455q0 -236 49.5 -329t175.5 -93 q127 0 180 88q52 89 52 340q0 176 -20.5 271.5t-68 136t-135.5 40.5q-132 0 -182.5 -98.5t-50.5 -355.5z" />
<glyph unicode="&#xf3;" horiz-adv-x="1046" d="M80 465q0 218 127.5 354.5t331.5 136.5q189 0 309.5 -137t120.5 -354q0 -206 -128 -342.5t-321 -136.5q-147 0 -266 90q-174 132 -174 389zM297 455q0 -236 49.5 -329t175.5 -93q127 0 180 88q52 89 52 340q0 176 -20.5 271.5t-68 136t-135.5 40.5q-132 0 -182.5 -98.5 t-50.5 -355.5zM510 1042l96 271q20 56 34.5 69t55.5 13h68q74 0 74 -52q0 -28 -35 -63l-246 -238h-47z" />
<glyph unicode="&#xf4;" horiz-adv-x="1046" d="M80 465q0 218 127.5 354.5t331.5 136.5q189 0 309.5 -137t120.5 -354q0 -206 -128 -342.5t-321 -136.5q-147 0 -266 90q-174 132 -174 389zM297 455q0 -236 49.5 -329t175.5 -93q127 0 180 88q52 89 52 340q0 176 -20.5 271.5t-68 136t-135.5 40.5q-132 0 -182.5 -98.5 t-50.5 -355.5zM344 1040l195 353h32l201 -353h-149l-111 201l-102 -201h-66z" />
<glyph unicode="&#xf5;" horiz-adv-x="1046" d="M80 465q0 218 127.5 354.5t331.5 136.5q189 0 309.5 -137t120.5 -354q0 -206 -128 -342.5t-321 -136.5q-147 0 -266 90q-174 132 -174 389zM262 1116q46 122 86.5 166.5t104.5 44.5q47 0 141 -47q93 -45 129 -45q30 0 52.5 20.5t55.5 79.5l52 -24q-54 -124 -94.5 -169.5 t-96.5 -45.5q-53 0 -153 45q-94 43 -133 43q-31 0 -50 -17.5t-45 -70.5zM297 455q0 -236 49.5 -329t175.5 -93q127 0 180 88q52 89 52 340q0 176 -20.5 271.5t-68 136t-135.5 40.5q-132 0 -182.5 -98.5t-50.5 -355.5z" />
<glyph unicode="&#xf6;" horiz-adv-x="1046" d="M80 465q0 218 127.5 354.5t331.5 136.5q189 0 309.5 -137t120.5 -354q0 -206 -128 -342.5t-321 -136.5q-147 0 -266 90q-174 132 -174 389zM250 1202q0 43 30.5 73t73.5 30q40 0 70.5 -31t30.5 -72t-31 -71.5t-72 -30.5q-42 0 -72 30t-30 72zM297 455q0 -236 49.5 -329 t175.5 -93q127 0 180 88q52 89 52 340q0 176 -20.5 271.5t-68 136t-135.5 40.5q-132 0 -182.5 -98.5t-50.5 -355.5zM618 1202q0 43 31 73t74 30q40 0 70 -31t30 -72t-30.5 -71.5t-71.5 -30.5q-43 0 -73 30t-30 72z" />
<glyph unicode="&#xf7;" d="M111 635v96h872v-96h-872zM418 340q0 54 38.5 91.5t94.5 37.5q51 0 89 -38.5t38 -90.5q0 -54 -38 -92.5t-91 -38.5q-55 0 -93 38.5t-38 92.5zM418 1028q0 54 38.5 91.5t94.5 37.5q51 0 89 -38.5t38 -90.5q0 -54 -38 -92.5t-91 -38.5q-55 0 -93 38.5t-38 92.5z" />
<glyph unicode="&#xf8;" horiz-adv-x="1036" d="M76 23l106 116q-62 83 -84 148.5t-22 163.5q0 227 125 365t331 138q89 0 154.5 -25.5t132.5 -86.5l107 112l43 -36l-109 -119q57 -80 80 -150.5t23 -167.5q0 -215 -126 -355t-317 -140q-170 0 -299 112l-104 -112zM291 453q0 -73 8 -185l432 471q-26 95 -71.5 133.5 t-133.5 38.5q-130 0 -182.5 -102t-52.5 -356zM309 197q31 -92 78 -129t133 -37q90 0 138.5 40t70 134t21.5 268q0 79 -11 195z" />
<glyph unicode="&#xf9;" horiz-adv-x="1206" d="M45 893v41h55q148 0 281 14v-586q0 -181 35 -249t127 -68q72 0 135.5 45.5t97.5 120.5q20 45 26.5 105t6.5 192v385h-172v41h82q147 0 280 14v-907h166v-41h-75q-181 0 -281 -14v184q-57 -94 -140.5 -139t-201.5 -45q-78 0 -140 24t-96 68q-25 34 -34 78.5t-9 136.5v600 h-143zM309 1343q0 52 74 52h68q41 0 55.5 -13t34.5 -69l96 -271h-47l-244 238q-37 37 -37 63z" />
<glyph unicode="&#xfa;" horiz-adv-x="1206" d="M45 893v41h55q148 0 281 14v-586q0 -181 35 -249t127 -68q72 0 135.5 45.5t97.5 120.5q20 45 26.5 105t6.5 192v385h-172v41h82q147 0 280 14v-907h166v-41h-75q-181 0 -281 -14v184q-57 -94 -140.5 -139t-201.5 -45q-78 0 -140 24t-96 68q-25 34 -34 78.5t-9 136.5v600 h-143zM555 1042l96 271q20 56 34.5 69t55.5 13h68q74 0 74 -52q0 -28 -35 -63l-246 -238h-47z" />
<glyph unicode="&#xfb;" horiz-adv-x="1206" d="M45 893v41h55q148 0 281 14v-586q0 -181 35 -249t127 -68q72 0 135.5 45.5t97.5 120.5q20 45 26.5 105t6.5 192v385h-172v41h82q147 0 280 14v-907h166v-41h-75q-181 0 -281 -14v184q-57 -94 -140.5 -139t-201.5 -45q-78 0 -140 24t-96 68q-25 34 -34 78.5t-9 136.5v600 h-143zM410 1040l194 353h33l201 -353h-150l-110 201l-103 -201h-65z" />
<glyph unicode="&#xfc;" horiz-adv-x="1206" d="M45 893v41h55q148 0 281 14v-586q0 -181 35 -249t127 -68q72 0 135.5 45.5t97.5 120.5q20 45 26.5 105t6.5 192v385h-172v41h82q147 0 280 14v-907h166v-41h-75q-181 0 -281 -14v184q-57 -94 -140.5 -139t-201.5 -45q-78 0 -140 24t-96 68q-25 34 -34 78.5t-9 136.5v600 h-143zM330 1202q0 43 30.5 73t73.5 30q40 0 70.5 -31t30.5 -72t-31 -71.5t-72 -30.5q-42 0 -72 30t-30 72zM698 1202q0 43 31 73t74 30q40 0 70 -31t30 -72t-30.5 -71.5t-71.5 -30.5q-43 0 -73 30t-30 72z" />
<glyph unicode="&#xfd;" horiz-adv-x="802" d="M-102 893v41h516v-41h-170l262 -631l196 631h-163v41h366v-41h-147l-320 -1014q-56 -174 -118 -241.5t-168 -67.5q-83 0 -134 43.5t-51 114.5q0 46 24 73t64 27q44 0 63 -26t21 -85q0 -86 68 -86q58 0 103 65.5t89 215.5l27 88l-389 893h-139zM477 1042l96 271 q20 55 35 68.5t56 13.5h67q74 0 74 -52q0 -28 -35 -63l-246 -238h-47z" />
<glyph unicode="&#xfe;" horiz-adv-x="1105" d="M23 -373h172v1690h-160v41h69q143 0 281 14v-586q51 92 112.5 130t161.5 38q172 0 270.5 -126.5t98.5 -348.5q0 -152 -45.5 -262.5t-130.5 -167.5q-94 -63 -215 -63q-91 0 -148.5 32t-103.5 107v-498h170v-45h-532v45zM385 449q0 -121 12 -194t41 -122q23 -41 67 -65.5 t95 -24.5q114 0 164.5 101.5t50.5 328.5q0 224 -48 324t-157 100q-55 0 -101 -27t-71 -73q-53 -100 -53 -348z" />
<glyph unicode="&#xff;" horiz-adv-x="802" d="M-102 893v41h516v-41h-170l262 -631l196 631h-163v41h366v-41h-147l-320 -1014q-56 -174 -118 -241.5t-168 -67.5q-83 0 -134 43.5t-51 114.5q0 46 24 73t64 27q44 0 63 -26t21 -85q0 -86 68 -86q58 0 103 65.5t89 215.5l27 88l-389 893h-139zM190 1202q0 43 31 73t74 30 q40 0 70 -31t30 -72t-30.5 -71.5t-71.5 -30.5q-43 0 -73 30t-30 72zM559 1202q0 43 31 73t74 30q40 0 70 -31t30 -72t-30.5 -71.5t-71.5 -30.5q-42 0 -72.5 30t-30.5 72z" />
<glyph unicode="&#x152;" horiz-adv-x="2084" d="M88 684q0 124 29 233.5t84.5 194.5t131.5 147t173.5 94.5t208.5 32.5q39 0 155 -10t144 -10h905l14 -420h-51q-9 119 -43 195t-100 127q-39 29 -97.5 40t-183.5 11h-244v-592h113q140 0 191 51.5t51 192.5v49h49v-651h-49l2 82q3 128 -49 176.5t-191 48.5h-117v-629h230 q164 0 233.5 18t126.5 76q62 62 93.5 138t41.5 190h58l-19 -469h-964q-58 0 -189 -14q-47 -6 -94 -6q-293 0 -468 191.5t-175 512.5zM334 664q0 -203 27.5 -326.5t87.5 -187.5q53 -55 126.5 -85t155.5 -30q88 0 153.5 32t94.5 89q15 33 25 109t10 169v473q0 150 -12 219 t-46 113t-95.5 69t-137.5 25q-191 0 -295 -141q-45 -62 -69.5 -199.5t-24.5 -328.5z" />
<glyph unicode="&#x153;" horiz-adv-x="1658" d="M80 465q0 212 131 350.5t332 138.5q209 0 307 -157q116 157 326 157q106 0 196.5 -46.5t145.5 -129.5q37 -54 51.5 -107.5t17.5 -142.5h-639q2 -136 11 -210.5t32 -127.5q31 -74 94 -114.5t146 -40.5q209 0 309 248l47 -19q-57 -142 -156 -210t-249 -68q-233 0 -332 155 q-61 -81 -137.5 -118t-182.5 -37q-198 0 -324 134t-126 345zM307 436q0 -119 9 -186t32 -119q22 -51 67.5 -78.5t108.5 -27.5q123 0 171 95t48 335q0 297 -53 379q-54 79 -158 79q-60 0 -106.5 -27.5t-69.5 -78.5q-49 -104 -49 -371zM950 582h416q-3 73 -12.5 126.5 t-31 101.5t-61 72.5t-96.5 24.5q-115 0 -166 -108q-22 -44 -31.5 -88t-17.5 -129z" />
<glyph unicode="&#x178;" horiz-adv-x="1024" d="M-92 1325v41h608v-41h-209l307 -563l293 563h-205v41h412v-41h-147l-334 -639v-645h178v-41h-573v41h184v645l-365 639h-149zM248 1599q0 47 35 81t84 34q46 0 80 -35t34 -82t-34.5 -81.5t-81.5 -34.5q-48 0 -82.5 34.5t-34.5 83.5zM705 1599q0 47 34.5 81t83.5 34 q46 0 80.5 -35t34.5 -82t-35 -81.5t-82 -34.5q-48 0 -82 34.5t-34 83.5z" />
<glyph unicode="&#x2c6;" horiz-adv-x="1024" d="M299 1040l195 353h32l201 -353h-149l-111 201l-102 -201h-66z" />
<glyph unicode="&#x2dc;" horiz-adv-x="1024" d="M203 1116q46 122 86 166.5t104 44.5q48 0 142 -47q93 -45 129 -45q30 0 52.5 20.5t55.5 79.5l51 -24q-54 -124 -94 -169.5t-96 -45.5q-54 0 -154 45q-94 43 -133 43q-31 0 -49.5 -17t-44.5 -71z" />
<glyph unicode="&#x2000;" horiz-adv-x="891" />
<glyph unicode="&#x2001;" horiz-adv-x="1782" />
<glyph unicode="&#x2002;" horiz-adv-x="891" />
<glyph unicode="&#x2003;" horiz-adv-x="1782" />
<glyph unicode="&#x2004;" horiz-adv-x="594" />
<glyph unicode="&#x2005;" horiz-adv-x="445" />
<glyph unicode="&#x2006;" horiz-adv-x="297" />
<glyph unicode="&#x2007;" horiz-adv-x="297" />
<glyph unicode="&#x2008;" horiz-adv-x="222" />
<glyph unicode="&#x2009;" horiz-adv-x="356" />
<glyph unicode="&#x200a;" horiz-adv-x="99" />
<glyph unicode="&#x2010;" horiz-adv-x="471" d="M0 465v102h471v-102h-471z" />
<glyph unicode="&#x2011;" horiz-adv-x="471" d="M0 465v102h471v-102h-471z" />
<glyph unicode="&#x2012;" horiz-adv-x="471" d="M0 465v102h471v-102h-471z" />
<glyph unicode="&#x2013;" horiz-adv-x="886" d="M43 465v102h793v-102h-793z" />
<glyph unicode="&#x2014;" horiz-adv-x="1406" d="M0 465v102h1407v-102h-1407z" />
<glyph unicode="&#x2018;" horiz-adv-x="665" d="M188 991q0 129 97 250q35 44 73.5 75.5t104.5 69.5l22 -38q-98 -72 -154.5 -155t-56.5 -155q0 -4 1 -11t2 -16.5t2 -17.5q26 22 45 29.5t45 7.5q52 0 86 -34t34 -87q0 -54 -41 -91.5t-100 -37.5q-69 0 -114.5 59.5t-45.5 151.5z" />
<glyph unicode="&#x2019;" horiz-adv-x="665" d="M176 1257q0 54 41 91.5t100 37.5q69 0 114.5 -59t45.5 -151q0 -130 -96 -250q-35 -44 -72.5 -75t-103.5 -71l-25 41q98 70 154.5 152.5t56.5 154.5q0 10 -4 46q-26 -22 -45 -29.5t-45 -7.5q-53 0 -87 34t-34 86z" />
<glyph unicode="&#x201a;" horiz-adv-x="665" d="M176 96q0 54 41 91.5t100 37.5q69 0 114.5 -59.5t45.5 -151.5q0 -127 -96 -250q-34 -43 -72 -73.5t-104 -69.5l-25 39q98 70 154.5 152.5t56.5 154.5q0 9 -4 45q-26 -22 -45 -29.5t-45 -7.5q-53 0 -87 34.5t-34 86.5z" />
<glyph unicode="&#x201c;" horiz-adv-x="1048" d="M188 991q0 129 97 250q35 44 73.5 75.5t104.5 69.5l22 -38q-98 -72 -154.5 -155t-56.5 -155q0 -4 1 -11t2 -16.5t2 -17.5q26 22 45 29.5t45 7.5q52 0 86 -34t34 -87q0 -54 -41 -91.5t-100 -37.5q-69 0 -114.5 59.5t-45.5 151.5zM571 991q0 129 97 250q35 44 73.5 75.5 t104.5 69.5l22 -38q-98 -72 -154.5 -155t-56.5 -155q0 -4 1 -11t2 -16.5t2 -17.5q26 22 45 29.5t45 7.5q52 0 86 -34t34 -87q0 -54 -41 -91.5t-100 -37.5q-69 0 -114.5 59.5t-45.5 151.5z" />
<glyph unicode="&#x201d;" horiz-adv-x="1048" d="M176 1257q0 54 41 91.5t100 37.5q69 0 114.5 -59t45.5 -151q0 -130 -96 -250q-35 -44 -72.5 -75t-103.5 -71l-25 41q98 70 154.5 152.5t56.5 154.5q0 10 -4 46q-26 -22 -45 -29.5t-45 -7.5q-53 0 -87 34t-34 86zM559 1257q0 54 41 91.5t100 37.5q69 0 114.5 -59 t45.5 -151q0 -235 -274 -396l-23 41q81 59 123 111q38 47 63 102.5t25 93.5q0 10 -4 46q-26 -22 -45 -29.5t-45 -7.5q-53 0 -87 34t-34 86z" />
<glyph unicode="&#x201e;" horiz-adv-x="1048" d="M176 100q0 54 41 91.5t100 37.5q69 0 114.5 -59.5t45.5 -151.5q0 -116 -69.5 -216.5t-202.5 -178.5l-25 39q98 72 154.5 154.5t56.5 154.5q0 5 -4 45q-43 -36 -90 -36q-53 0 -87 34t-34 86zM559 100q0 54 41 91.5t100 37.5q69 0 114.5 -59.5t45.5 -151.5 q0 -116 -69.5 -216.5t-204.5 -178.5l-23 39q83 63 123 113q39 48 63.5 102.5t24.5 93.5q0 5 -4 45q-43 -36 -90 -36q-53 0 -87 34t-34 86z" />
<glyph unicode="&#x2022;" horiz-adv-x="1366" d="M401 692q0 120 83.5 202.5t205.5 82.5q114 0 196.5 -83.5t82.5 -199.5q0 -118 -83 -201t-200 -83t-201 82.5t-84 199.5z" />
<glyph unicode="&#x2026;" horiz-adv-x="1648" d="M145 111q0 54 39 91.5t95 37.5q51 0 89 -38.5t38 -90.5q0 -54 -38.5 -92.5t-91.5 -38.5q-55 0 -93 38.5t-38 92.5zM694 111q0 54 38.5 91.5t94.5 37.5q51 0 89 -38.5t38 -90.5q0 -54 -38 -92.5t-91 -38.5q-55 0 -93 38.5t-38 92.5zM1245 111q0 54 38.5 91.5t94.5 37.5 q51 0 89 -38.5t38 -90.5q0 -54 -38 -92.5t-91 -38.5q-55 0 -93 38.5t-38 92.5z" />
<glyph unicode="&#x202f;" horiz-adv-x="356" />
<glyph unicode="&#x2039;" horiz-adv-x="593" d="M113 498v61l321 293l41 -37l-180 -295l192 -289l-38 -36z" />
<glyph unicode="&#x203a;" horiz-adv-x="593" d="M106 813l39 39l336 -303v-62l-321 -292l-41 36l180 295z" />
<glyph unicode="&#x205f;" horiz-adv-x="445" />
<glyph unicode="&#x20ac;" horiz-adv-x="1396" d="M82 592l24 59h91v60h-115l24 59h95q29 287 206.5 451.5t458.5 164.5q108 0 210.5 -23.5t238.5 -80.5v-360h-60q-3 108 -26 172.5t-80 124.5q-111 114 -277 114q-124 0 -220 -57.5t-140 -157.5q-31 -69 -45 -145.5t-18 -202.5h649l-25 -59h-627v-60h601l-25 -59h-573 q8 -203 49 -318q38 -112 131.5 -176.5t216.5 -64.5q175 0 283.5 122t125.5 339h60v-381q-137 -71 -250 -102t-231 -31q-156 0 -288.5 61t-215.5 172q-106 142 -131 379h-117z" />
<glyph unicode="&#x2122;" horiz-adv-x="1890" d="M31 1108v258h727v-258h-47q-6 97 -54 162q-41 55 -135 55h-59v-700h123v-37h-387v37h125v700h-52q-57 0 -86.5 -11.5t-54.5 -43.5q-46 -59 -57 -162h-43zM815 588v37h103v704h-103v37h270l238 -582l248 582h258v-37h-105v-704h105v-37h-371v37h125v659l-299 -711h-27 l-290 709v-657h120v-37h-272z" />
</font>
</defs>
</svg>
